<?xml version="1.0" encoding="UTF-8"?>
<!DOCTYPE svg PUBLIC "-//W3C//DTD SVG 1.1//EN" "http://www.w3.org/Graphics/SVG/1.1/DTD/svg11.dtd">
<!-- Creator: CorelDRAW X7 -->
<svg xmlns="http://www.w3.org/2000/svg" xml:space="preserve" width="76.2mm" height="4.0284mm" version="1.1" style="shape-rendering:geometricPrecision; text-rendering:geometricPrecision; image-rendering:optimizeQuality; fill-rule:evenodd; clip-rule:evenodd"
viewBox="0 0 7620 403"
 xmlns:xlink="http://www.w3.org/1999/xlink">
 <defs>
  <style type="text/css">
   <![CDATA[
    .fil0 {fill:#FEFEFE;fill-rule:nonzero}
   ]]>
  </style>
 </defs>
 <g id="Camada_x0020_1">
  <metadata id="CorelCorpID_0Corel-Layer"/>
  <g id="_983451552">
   <path class="fil0" d="M4514 171c-5,-2 -10,-3 -16,-5 -5,-1 -11,-2 -16,-3 -3,0 -6,-1 -9,-1 -3,0 -6,-1 -9,-1 -6,0 -12,0 -18,0 7,-1 15,-3 25,-5 9,-1 21,-3 33,-5 3,0 6,0 9,0 3,-1 7,-1 10,-1 6,-1 13,-1 19,-1 14,-1 27,-1 40,-1l0 -17c-8,0 -16,0 -25,1 -5,0 -10,0 -15,0 -5,0 -10,1 -15,1 -11,1 -22,1 -33,3 -5,0 -11,1 -16,2 -3,0 -5,0 -8,1 -3,0 -5,1 -8,1 -10,2 -21,4 -30,6 -9,2 -17,4 -24,6 -14,3 -24,5 -27,5 0,-4 12,-20 25,-34 6,-7 12,-14 17,-20 2,-2 5,-4 7,-6 2,-2 3,-2 4,-3 6,-1 15,-2 22,-3 4,0 8,0 11,0 4,-1 7,-1 9,-1 3,11 14,19 26,18 14,0 26,-11 25,-24 0,-14 -13,-25 -28,-23 -13,1 -22,10 -24,20 -4,1 -9,1 -13,2 -4,0 -8,1 -11,1 -7,1 -11,2 -11,2 0,0 -1,-16 -1,-22 5,0 11,0 16,-2 6,-2 10,-4 15,-7 15,-12 14,-33 1,-45 -3,-3 -8,-6 -13,-8 -5,-1 -11,-2 -17,-2 -11,1 -23,5 -31,13 -2,2 -4,4 -5,6 -1,2 -1,4 -1,6 -1,4 -1,8 0,12 1,4 3,8 5,12 2,3 4,7 9,9 3,2 7,3 11,4 3,7 6,17 -1,24 -1,0 -2,1 -3,2 -1,1 -2,2 -3,4 -3,2 -5,6 -9,9 -6,8 -14,17 -23,26 -8,9 -17,18 -24,25 -7,7 -12,12 -15,13 0,0 -17,4 -39,8 -5,1 -11,3 -17,4 -6,1 -12,2 -18,3 -11,2 -23,4 -32,6 15,-6 32,-14 46,-24 14,-11 25,-24 28,-39 5,-17 2,-36 -7,-47 -8,-11 -22,-14 -41,0 -18,14 -31,39 -41,63 -3,6 -5,12 -8,17 -2,6 -5,11 -7,16 -5,9 -9,17 -14,21 -5,1 -12,2 -18,4 0,0 -3,0 -8,1 -5,1 -12,2 -19,3 -14,1 -27,3 -27,3 -4,0 -7,0 -11,0 0,-6 27,-32 35,-40 10,6 23,3 31,-6 10,-11 8,-29 -4,-38 -10,-8 -25,-6 -34,5 -7,9 -8,23 0,33 -11,14 -39,44 -57,47 -4,1 -16,2 -32,4 -9,1 -18,2 -28,3 -10,1 -21,2 -32,3 -11,0 -22,1 -33,2 -11,1 -22,1 -32,2 -20,1 -37,2 -48,2 8,-2 16,-4 24,-7 8,-2 16,-5 23,-8 15,-5 29,-11 42,-19 25,-14 45,-31 54,-50 6,-15 1,-28 -10,-36 -12,-8 -30,-11 -50,-7 -55,12 -82,38 -100,65 -10,13 -17,26 -24,38 -8,11 -16,21 -27,26l-9 0c-5,0 -12,0 -21,1 -1,0 -2,0 -3,0l0 15 0 -15c-14,0 -33,0 -54,-1 -20,0 -42,-1 -63,-1 -20,-1 -39,-2 -54,-3 -15,-1 -25,-2 -27,-2 1,-4 17,-16 33,-26 16,-11 32,-20 33,-20 11,0 29,3 36,4 1,12 11,21 22,22 12,1 24,-9 25,-23 0,-14 -11,-25 -24,-25 -10,0 -19,7 -22,17 -15,-1 -30,-2 -30,-2 0,0 3,-16 4,-22 8,3 18,3 25,-3 14,-10 16,-30 8,-44 -10,-15 -31,-21 -44,-9 -13,11 -14,32 -4,45 2,3 5,5 8,7 0,7 1,18 -6,23 -5,3 -26,17 -47,30 -21,13 -43,24 -48,26 0,0 -18,-1 -40,-3 -22,-1 -50,-3 -69,-5 33,-2 74,-15 89,-42 8,-15 11,-34 6,-47 -6,-13 -19,-19 -42,-10 -44,18 -75,85 -97,96 -6,0 -12,0 -19,0l-54 -5c-4,0 -7,-1 -11,-2 1,-6 33,-26 43,-32 9,8 22,8 32,2 12,-9 15,-27 5,-39 -9,-10 -25,-11 -35,-3 -10,8 -13,22 -8,33 -14,11 -48,35 -66,34 -16,0 -162,-13 -206,-16 67,-9 131,-27 156,-63 19,-26 -11,-53 -54,-51 -60,3 -91,26 -113,50 -22,24 -34,50 -58,59l-9 -1c-4,0 -11,0 -21,-1 -1,0 -1,0 -2,0l0 0c-29,-2 -77,-5 -118,-8 -21,-1 -40,-2 -55,-3 -14,-1 -24,-2 -27,-2 1,-4 17,-16 33,-26 17,-11 34,-20 35,-20 11,1 29,4 37,5 0,12 10,21 21,23 12,1 25,-8 26,-22 2,-13 -9,-26 -23,-26 -10,0 -20,7 -23,16 -16,-1 -31,-3 -31,-3 0,0 3,-15 4,-21 9,3 18,3 27,-3 14,-9 17,-30 9,-44 -10,-15 -32,-21 -47,-10 -14,11 -15,32 -4,46 2,2 5,5 7,7 1,6 1,17 -6,22 -5,3 -27,17 -48,30 -22,13 -43,26 -48,27 0,0 -5,0 -12,-1 -7,0 -17,0 -29,0 -22,0 -49,-1 -69,0 8,-2 17,-4 26,-6 8,-3 17,-6 25,-10 16,-8 29,-18 36,-32 9,-16 11,-35 5,-47 -7,-13 -21,-19 -44,-8 -23,10 -41,33 -56,54 -14,22 -26,43 -36,50 -6,0 -13,1 -19,1 0,0 -14,1 -28,1 -7,0 -14,1 -19,1 -5,0 -8,0 -8,0 -4,0 -7,0 -11,0 0,-6 30,-31 39,-38 10,7 23,6 32,-2 12,-10 13,-28 1,-39 -10,-8 -26,-8 -36,2 -9,8 -11,22 -4,33 -13,13 -44,41 -62,43 -4,1 -16,2 -33,4 -16,1 -37,3 -60,5 -44,4 -91,9 -113,11 32,-10 63,-23 88,-38 26,-15 45,-32 55,-51 8,-15 2,-28 -10,-35 -13,-8 -32,-11 -53,-6 -117,27 -106,112 -149,138l-8 0c-5,1 -12,2 -21,3 -1,0 -2,0 -3,0l1 4 -1 -4c-58,6 -188,19 -198,19 0,-9 57,-55 59,-55 12,-1 29,-1 37,-1 3,11 13,20 24,19 13,-1 24,-12 23,-25 -1,-14 -14,-25 -27,-23 -10,2 -18,10 -20,20 -16,1 -31,2 -31,2 0,0 1,-16 1,-22 9,2 18,0 26,-7 12,-11 12,-32 1,-44 -11,-14 -33,-17 -46,-3 -11,12 -9,34 3,45 2,3 5,5 8,6 2,7 4,17 -3,23 -9,9 -75,65 -86,69 0,0 -70,7 -109,10 33,-7 71,-27 81,-55 13,-34 -1,-77 -44,-51 -41,24 -61,95 -81,110 -6,1 -12,2 -18,3l-55 4c-3,0 -7,0 -10,-1 -1,-6 28,-31 37,-38 10,6 23,5 31,-3 11,-11 11,-30 -1,-39 -10,-9 -25,-7 -35,2 -8,9 -9,24 -2,34 -12,13 -42,41 -60,44 -8,1 -48,4 -92,6 -22,1 -45,2 -65,2 -10,1 -20,1 -28,1 -8,0 -15,0 -21,0 16,-3 33,-8 48,-13 15,-6 29,-11 42,-18 26,-14 46,-30 56,-49 15,-29 -18,-52 -59,-44 -28,5 -49,14 -65,25 -17,11 -28,23 -38,37 -9,13 -17,26 -25,37 -4,6 -8,11 -12,15 -5,5 -9,8 -15,11l-9 0c-4,0 -12,0 -21,0 -1,0 -2,0 -2,0 -4,0 -8,-1 -12,-1l0 1c-62,-2 -177,-9 -187,-11 2,-8 65,-45 67,-45 12,1 29,4 37,5 1,12 10,21 21,22 12,2 24,-8 25,-22 1,-13 -10,-25 -23,-26 -10,0 -19,8 -22,17 -16,-1 -31,-3 -31,-3 0,0 3,-15 4,-21 9,3 19,3 27,-3 14,-9 16,-30 8,-44 -9,-15 -31,-21 -45,-10 -13,11 -14,32 -4,46 2,2 4,5 7,7 1,6 1,17 -6,22 -5,3 -27,17 -48,29 -21,13 -43,25 -48,26 0,0 -70,-4 -109,-7 33,-2 74,-16 89,-42 17,-31 10,-76 -36,-57 -45,18 -75,85 -97,97 -24,0 -52,0 -84,-6 0,-6 32,-27 42,-33 9,8 22,8 32,1 12,-8 15,-27 4,-38 -8,-10 -24,-11 -35,-3 -9,8 -13,22 -7,33 -14,12 -48,36 -66,36 -15,0 -162,-10 -206,-13 67,-9 130,-29 155,-65 19,-27 -12,-53 -55,-51 -121,9 -122,96 -170,113 -16,-1 -60,-5 -102,-9 -41,-3 -81,-6 -88,-7 0,0 17,-15 23,-22 18,15 48,-2 44,-24 -4,-30 -59,-29 -55,-2 0,7 2,13 5,17 -8,6 -36,28 -46,28 -27,1 -62,1 -85,0 24,-2 41,-8 54,-15 19,-10 36,-29 21,-37 -7,-5 -26,-8 -50,-3 -25,6 -55,20 -86,53 -8,-1 -52,-3 -100,-6 -48,-3 -101,-7 -126,-12 -12,-3 -11,41 -3,41 59,-5 146,-5 221,-3 37,1 72,3 99,4 27,2 47,3 54,3 20,38 56,91 84,110 30,20 55,-12 48,-44 -6,-28 -37,-51 -87,-64 41,0 173,3 225,15 7,2 26,26 33,35 -6,7 -10,17 -8,27 3,15 18,25 32,24 15,-1 27,-14 28,-28 1,-19 -19,-36 -38,-32 -2,1 -5,2 -7,4 -11,-10 -19,-29 -19,-29 25,3 100,7 121,8 25,25 68,110 104,111 28,1 54,-13 50,-38 -2,-21 -39,-51 -107,-71 37,3 148,12 159,12 15,14 73,59 78,61 3,2 7,23 9,33 -2,1 -5,2 -7,4 -14,12 -16,32 -6,47 11,14 30,17 44,7 16,-10 20,-33 8,-49 -7,-9 -20,-14 -31,-12 -3,-10 -5,-26 -5,-26l32 -4c1,5 4,9 7,12 9,10 27,11 36,0 7,-10 4,-26 -6,-34 -10,-8 -27,-6 -34,5 -2,2 -3,5 -3,8 -8,2 -26,6 -31,5 -5,-1 -65,-52 -68,-55 10,1 51,3 91,6 40,3 80,6 89,9 21,41 49,73 74,94 26,22 49,32 57,31 9,-2 18,-13 22,-27 4,-14 3,-31 -8,-46 -19,-25 -64,-46 -111,-57 13,0 34,1 59,2 25,1 53,2 78,2 2,0 3,0 5,0 5,1 20,1 41,1 14,1 27,2 37,4 7,1 28,23 36,32 -6,8 -9,18 -6,28 5,14 20,23 35,20 15,-2 26,-16 25,-30 -1,-19 -23,-34 -41,-28 -2,1 -4,2 -7,4 -6,-4 -11,-11 -15,-17 -4,-6 -7,-10 -7,-10 26,1 101,-3 122,-4 14,11 34,37 56,59 21,22 44,41 62,39 29,-3 52,-21 46,-45 -6,-21 -47,-45 -117,-56 37,-2 148,-8 159,-10 9,6 29,17 48,28 19,10 36,20 39,21 3,1 11,21 14,31 -2,1 -5,3 -7,5 -11,13 -11,34 2,47 12,12 33,12 45,1 14,-13 14,-37 0,-50 -9,-8 -22,-11 -33,-7 -4,-10 -8,-25 -8,-25l31 -9c2,4 4,8 8,11 11,8 29,7 36,-6 6,-11 0,-26 -11,-32 -12,-7 -28,-3 -33,9 -2,3 -2,6 -2,9 -7,3 -25,10 -29,10 -6,0 -73,-42 -77,-44 11,-1 51,-5 91,-8 41,-3 81,-6 90,-5 53,74 131,110 146,104 16,-6 29,-47 4,-74 -21,-22 -69,-37 -117,-40 25,-3 85,-10 136,-15l0 0c2,-1 3,-1 5,-1 4,0 19,-2 41,-4 14,0 26,0 36,0 8,1 30,21 39,29 -5,8 -7,18 -3,28 5,14 21,22 35,18 14,-3 24,-18 22,-32 -2,-19 -24,-32 -42,-25 -2,1 -4,3 -6,4 -13,-7 -24,-25 -24,-25 13,0 38,-3 62,-5 25,-3 48,-5 59,-7 14,11 35,36 57,58 10,10 21,20 31,28 10,7 20,11 28,10 27,-2 50,-19 45,-43 -2,-5 -5,-11 -11,-17 -2,-2 -5,-5 -9,-8 -4,-3 -8,-5 -13,-8 -19,-10 -47,-20 -82,-24 10,-1 23,-2 39,-3 16,0 34,-1 51,-2 33,-1 64,-2 69,-2 9,6 28,19 46,31 17,12 33,24 36,25 3,1 8,22 10,32 -2,1 -5,3 -7,5 -12,12 -13,32 -3,46 11,14 30,16 43,6 14,-11 17,-35 5,-49 -7,-10 -19,-14 -30,-11 -3,-10 -6,-26 -6,-26 0,0 8,-2 15,-3 8,-1 16,-2 16,-2 1,4 4,8 7,11 9,10 27,11 35,-1 7,-10 4,-26 -6,-34 -11,-7 -28,-5 -34,6 -2,3 -3,5 -3,8 -7,2 -25,8 -29,7 -3,0 -20,-12 -37,-25 -16,-12 -33,-24 -35,-25 6,-1 18,-1 35,-1 16,0 36,1 57,1 20,1 40,2 56,3 16,1 28,2 33,3 42,81 110,129 126,126 17,-4 36,-42 16,-72 -8,-13 -24,-25 -43,-36 -19,-10 -41,-18 -65,-23 12,0 34,1 58,2 25,2 53,3 79,5l0 -7 0 7c1,0 3,1 4,1 5,0 20,1 41,3 14,2 27,4 36,7 7,1 26,26 33,35 -6,7 -10,17 -8,27 3,15 16,25 31,24 15,-1 27,-14 28,-28 1,-19 -18,-36 -37,-31 -2,0 -5,1 -7,3 -11,-11 -19,-29 -19,-29 26,3 100,8 121,9 25,27 66,112 102,114 28,2 54,-12 51,-37 -2,-21 -39,-52 -106,-73 37,4 148,14 159,15 7,7 26,21 43,35 17,13 32,25 34,27 4,1 8,23 10,32 -3,1 -5,3 -8,5 -13,11 -16,31 -6,46 11,14 31,17 45,8 16,-11 20,-34 8,-49 -8,-10 -20,-14 -31,-12 -3,-11 -5,-27 -5,-27 0,0 8,0 16,-1 8,-1 16,-2 16,-2 1,4 3,9 7,12 9,10 28,11 36,0 8,-10 4,-26 -6,-34 -10,-8 -27,-7 -34,4 -2,3 -3,6 -3,8 -8,2 -26,7 -31,6 -3,-1 -19,-14 -35,-27 -16,-14 -32,-27 -33,-29 10,1 51,4 91,7 20,1 40,3 56,4 16,1 29,3 33,4 21,41 51,72 77,93 26,21 49,31 57,29 17,-4 34,-43 12,-73 -9,-12 -25,-23 -45,-33 -20,-9 -43,-17 -67,-21 13,0 34,0 59,1 12,0 26,0 39,0 13,0 27,0 39,0l0 0c2,0 4,0 5,0 5,0 20,0 42,0 14,1 26,1 36,3 7,1 29,23 37,31 -6,8 -8,18 -5,28 5,15 20,23 35,20 15,-3 26,-17 25,-31 -2,-19 -24,-34 -42,-27 -2,1 -5,2 -7,4 -13,-8 -22,-26 -22,-26 13,0 38,-2 62,-3 13,0 25,-2 35,-3 10,-1 19,-1 24,-2 8,6 16,15 26,25 10,10 21,21 32,32 12,11 23,20 34,27 11,7 22,10 31,9 30,-4 52,-24 44,-47 -3,-10 -16,-21 -36,-30 -11,-5 -23,-9 -37,-12 -14,-3 -30,-7 -47,-9 9,0 23,-2 39,-3 16,-2 33,-4 50,-6 17,-1 33,-4 45,-5 13,-2 22,-3 25,-4 4,3 12,6 21,11 9,4 19,8 29,13 20,9 38,17 41,17 3,1 13,21 17,29 -2,2 -4,4 -6,7 -11,14 -9,35 6,46 14,11 35,8 47,-4 13,-15 10,-38 -6,-50 -10,-7 -23,-8 -34,-3 -5,-9 -11,-24 -11,-24l30 -12c3,4 6,7 10,10 12,7 31,3 36,-10 4,-12 -3,-27 -15,-31 -13,-5 -29,1 -33,13 -1,3 -1,6 0,9 -7,4 -24,13 -29,13 -3,0 -22,-8 -41,-17 -19,-9 -38,-19 -40,-20 6,-1 18,-3 34,-6 9,-1 18,-3 27,-5 10,-1 20,-3 30,-5 9,-2 19,-4 29,-6 5,-1 9,-2 14,-2 4,-1 8,-2 12,-3 16,-3 28,-5 33,-6 8,9 16,17 25,24 4,3 8,6 12,10 4,3 8,6 12,9 7,7 14,12 20,18 3,2 6,5 9,7 4,3 7,5 10,7 5,5 11,8 16,12 5,3 9,6 13,8 9,4 15,5 18,4 7,-2 14,-13 17,-27 3,-14 1,-31 -9,-46 -9,-12 -25,-22 -44,-30z"/>
   <path class="fil0" d="M7620 180c-1,-14 -2,-28 -14,-38 -11,-8 -34,-13 -80,-7 -12,2 -31,7 -51,12 -20,5 -40,11 -55,13 0,0 -2,0 -6,0 -3,0 -9,0 -15,0 -14,0 -32,1 -53,3 -21,2 -44,3 -67,4 -23,1 -45,2 -65,3 0,-8 37,-32 37,-32 6,-2 17,-5 27,-7 9,-2 19,-3 24,-4 2,4 4,7 7,11 10,11 20,14 30,12 4,-1 8,-3 12,-6 4,-3 8,-6 10,-11 5,-8 7,-21 2,-31 -5,-10 -16,-18 -33,-17 -17,1 -29,16 -30,31 -18,6 -37,12 -43,12 -1,-6 1,-21 2,-29 20,8 35,-12 31,-29 -4,-19 -22,-26 -35,-18 -13,8 -22,30 -3,43 0,18 -1,30 -3,33 -3,2 -53,41 -70,43 -16,0 -85,8 -133,9 45,-10 97,-36 114,-62 18,-29 -22,-55 -48,-51 -26,4 -75,68 -96,113 -5,0 -13,0 -24,1l1 8 -1 -8c-29,1 -76,2 -117,2 -20,-1 -39,-1 -54,-2 -14,-1 -24,-2 -27,-2 1,-4 17,-16 33,-26 16,-11 32,-21 33,-21 11,1 28,3 35,4 1,11 11,20 22,21 12,1 24,-10 24,-24 0,-13 -11,-25 -24,-24 -10,0 -18,8 -21,18 -8,0 -15,-1 -21,-1 -5,-1 -9,-1 -9,-1 0,0 3,-15 3,-22 8,3 18,3 25,-3 13,-11 14,-31 6,-45 -9,-14 -29,-20 -42,-8 -12,11 -13,33 -3,46 2,3 4,5 7,7 1,6 2,17 -5,22 -5,4 -25,18 -46,31 -10,6 -21,12 -30,17 -8,5 -15,8 -18,8 0,0 -4,0 -11,0 -7,-1 -17,-2 -28,-3 -6,0 -12,-1 -18,-1 -5,-1 -12,-2 -17,-2 -12,-2 -24,-3 -34,-4 4,0 9,-1 13,-1 5,-1 9,-1 13,-2 9,-2 18,-4 26,-7 16,-7 30,-16 38,-29 9,-15 11,-35 6,-47 -5,-13 -17,-20 -39,-11 -11,4 -21,11 -30,19 -3,3 -5,5 -7,7 -3,2 -6,5 -8,7 -6,5 -11,10 -15,15 -9,10 -17,20 -24,28 -7,9 -13,16 -18,19 -6,0 -13,1 -19,1 0,0 -4,0 -9,1 -6,0 -13,0 -20,1 -13,1 -27,2 -27,2 -4,0 -7,0 -11,0 0,-3 7,-11 15,-19 8,-8 18,-17 23,-20 5,3 11,4 17,4 6,-1 12,-3 17,-7 13,-9 15,-28 2,-38 -6,-5 -13,-7 -21,-7 -7,1 -14,3 -19,8 -10,9 -11,24 -3,34 -7,7 -18,17 -29,27 -12,9 -23,18 -32,20 -4,0 -16,2 -32,5 -17,2 -38,5 -59,8 -6,0 -11,1 -17,1l-8 1c-3,0 -5,1 -8,1 -11,0 -22,1 -32,2 -20,1 -37,1 -48,2 32,-8 64,-20 88,-34 6,-4 12,-7 17,-12 5,-4 10,-8 14,-12 9,-9 15,-19 19,-29 6,-14 1,-27 -11,-34 -6,-4 -13,-7 -21,-8 -4,0 -8,0 -13,0 -4,0 -8,1 -12,2 -2,1 -6,2 -9,2 -3,1 -6,2 -9,3 -6,2 -12,4 -17,6 -10,5 -19,10 -27,16 -16,11 -27,24 -36,37 -19,27 -29,53 -51,65l-9 0c-5,0 -12,0 -21,0 -1,0 -2,0 -3,0l0 0c-29,0 -76,0 -117,-2 -41,-1 -76,-3 -82,-4 2,-8 65,-47 67,-47 11,1 28,3 36,4 1,12 10,21 22,22 12,1 24,-9 25,-22 0,-14 -11,-26 -24,-26 -10,0 -19,8 -22,18 -15,-1 -30,-3 -30,-3 0,0 2,-15 3,-21 9,3 18,2 26,-3 14,-10 16,-31 7,-45 -9,-15 -30,-20 -44,-9 -13,11 -14,33 -4,46 3,3 5,5 8,7 1,7 1,17 -6,22 -10,8 -83,55 -95,57 0,0 -70,-3 -109,-4 34,-4 74,-18 88,-45 17,-31 9,-76 -37,-56 -44,19 -73,87 -95,99 -6,0 -12,1 -19,1 0,0 -13,-1 -27,-1 -14,-1 -28,-1 -28,-1 -3,0 -7,-1 -10,-1 0,-6 31,-29 41,-35 9,7 23,7 32,0 12,-9 14,-28 3,-39 -9,-9 -25,-9 -35,-1 -10,8 -12,22 -6,33 -14,12 -47,37 -65,39 -4,0 -16,0 -33,0 -16,0 -38,0 -60,0 -22,0 -45,0 -66,1 -20,0 -38,1 -49,1 66,-16 129,-40 152,-78 9,-14 5,-27 -7,-36 -6,-4 -14,-7 -23,-9 -4,-1 -9,-2 -14,-2 -5,0 -10,0 -16,1 -15,2 -29,5 -40,9 -12,5 -22,10 -31,15 -17,11 -29,25 -39,38 -19,27 -28,54 -50,66l-9 0c-5,1 -12,1 -21,2 -1,0 -2,0 -3,0l1 7 -1 -7c-29,2 -76,4 -117,5 -41,0 -76,-1 -81,-2 0,-2 5,-6 11,-11 6,-5 13,-10 21,-16 8,-6 15,-11 21,-15 6,-4 10,-6 11,-6 11,0 28,1 36,2 1,12 11,20 22,20 12,1 24,-10 23,-23 0,-14 -12,-25 -24,-24 -10,0 -19,8 -21,18 -15,0 -30,0 -30,0 0,0 2,-16 2,-23 9,3 18,2 26,-4 12,-11 13,-31 4,-44 -10,-15 -30,-19 -43,-7 -11,11 -11,33 -1,46 2,2 5,4 7,6 2,7 2,17 -4,23 -5,3 -25,18 -45,31 -10,7 -20,14 -29,19 -8,4 -15,8 -18,8 0,0 -4,0 -11,0 -7,-1 -17,-2 -28,-3 -11,-1 -24,-2 -36,-3 -12,-1 -23,-2 -33,-3 34,-1 74,-14 89,-40 9,-16 11,-35 7,-47 -3,-7 -7,-12 -14,-14 -6,-2 -15,-2 -26,3 -22,9 -41,29 -58,49 -16,20 -30,39 -42,44 -5,0 -12,0 -18,-1l-55 -7c-3,0 -6,-1 -10,-2 1,-6 34,-25 44,-30 8,8 22,9 32,3 12,-9 15,-27 6,-39 -8,-10 -24,-12 -34,-4 -10,7 -14,21 -9,32 -15,11 -50,33 -68,32 -8,-1 -48,-6 -92,-11 -44,-5 -92,-11 -114,-12 67,-8 133,-24 160,-58 10,-13 8,-27 -3,-37 -10,-10 -28,-17 -50,-17 -31,0 -55,7 -74,15 -19,9 -33,21 -44,33 -11,12 -20,25 -29,35 -4,6 -9,11 -14,15 -4,4 -9,7 -15,10l-9 0c-5,0 -12,-1 -22,-1 -1,0 -1,0 -2,0l0 17c1,0 3,0 4,0 5,0 20,0 42,2 14,1 26,3 35,6 8,1 26,26 33,35 -7,7 -10,17 -9,27 2,7 6,14 11,18 5,4 12,7 19,6 15,0 27,-13 28,-27 2,-19 -17,-36 -35,-32 -3,0 -5,1 -7,3 -11,-11 -19,-29 -19,-29 7,1 16,1 27,3 11,1 23,2 35,3 25,3 48,5 59,6 24,27 60,115 97,118 14,2 28,-1 38,-7 10,-6 16,-15 15,-28 -1,-10 -10,-24 -28,-38 -17,-13 -43,-27 -76,-39 19,2 56,7 89,12 17,2 33,5 45,6 13,2 22,3 24,3 4,4 10,9 18,16 7,6 16,14 24,21 9,6 17,13 23,18 6,5 11,8 12,9 3,2 7,23 9,33 -3,1 -6,3 -8,4 -14,11 -18,32 -7,46 5,8 13,12 21,14 9,1 17,0 25,-5 18,-10 22,-33 9,-49 -4,-5 -9,-8 -15,-10 -6,-2 -12,-3 -17,-2 -3,-11 -5,-27 -5,-27l33 -3c1,5 4,9 7,12 5,6 12,8 19,8 8,0 15,-2 19,-8 8,-10 4,-26 -7,-34 -5,-4 -12,-5 -19,-4 -6,0 -12,3 -16,9 -2,2 -3,5 -3,8 -8,2 -26,6 -31,5 -3,-1 -19,-14 -35,-28 -16,-14 -31,-28 -33,-29 5,0 18,1 35,3 16,2 36,3 56,5 41,4 81,6 90,7 23,40 55,71 82,90 28,19 51,28 59,25 17,-5 32,-45 8,-73 -20,-24 -67,-41 -115,-48 13,-1 34,-1 59,-2 25,-2 53,-3 78,-5l0 0c2,0 3,0 5,0 5,0 20,-1 41,-2 14,0 27,1 37,2 7,1 28,23 36,32 -5,7 -8,17 -5,27 5,15 19,23 33,21 15,-3 25,-17 25,-31 -1,-19 -22,-34 -40,-27 -2,0 -5,2 -7,3 -12,-8 -22,-26 -22,-26 7,0 16,0 27,0 11,-1 23,-1 36,-1 24,-1 48,-2 59,-2 13,12 32,38 51,62 19,24 39,44 57,44 28,0 52,-16 48,-40 -1,-11 -12,-23 -30,-35 -9,-6 -21,-12 -34,-17 -13,-5 -29,-10 -46,-14 19,0 56,1 90,3 34,1 64,2 70,2 16,13 74,57 79,60 3,1 8,22 10,32 -3,1 -5,3 -8,5 -13,11 -15,32 -4,46 11,14 30,17 44,7 15,-11 19,-34 7,-49 -8,-10 -20,-14 -32,-11 -2,-11 -5,-27 -5,-27l32 -4c1,4 4,9 7,12 9,10 28,10 36,-1 7,-10 4,-26 -6,-34 -11,-8 -28,-6 -35,5 -1,3 -2,6 -2,8 -8,3 -26,7 -31,7 -5,-1 -66,-51 -69,-54 20,0 162,7 180,11 22,40 51,72 77,93 26,20 49,31 57,29 17,-5 34,-44 12,-73 -19,-25 -64,-45 -112,-55 26,1 86,2 137,2l0 0c2,0 3,0 5,0 2,0 7,0 14,0 8,0 17,0 27,0 15,0 27,1 37,3 7,1 28,23 37,31 -6,7 -9,18 -5,28 4,14 20,23 35,20 15,-4 26,-18 25,-32 -2,-19 -24,-33 -42,-26 -2,1 -5,2 -7,4 -13,-9 -22,-27 -22,-27 6,0 16,0 27,0 11,-1 23,-2 35,-2 25,-2 49,-5 59,-6 15,10 38,34 61,54 23,20 45,38 61,35 13,-2 24,-7 32,-15 7,-8 11,-18 8,-30 -3,-10 -13,-22 -33,-32 -19,-9 -47,-16 -82,-19 18,-2 55,-7 88,-10 34,-3 64,-2 70,-2 8,6 26,21 40,34 17,15 33,27 35,29 3,2 7,23 8,33 -2,1 -5,2 -8,4 -14,10 -18,31 -7,46 10,15 32,18 47,9 17,-10 21,-33 9,-49 -8,-9 -21,-14 -33,-12 -2,-11 -3,-27 -3,-27l33 -3c1,5 3,9 6,12 9,10 29,12 37,1 8,-10 5,-26 -6,-34 -10,-8 -27,-7 -35,4 -1,2 -2,5 -3,8 -8,2 -26,5 -31,4 -3,0 -19,-14 -35,-28 -4,-4 -8,-7 -11,-11 -4,-3 -7,-6 -10,-9 -3,-2 -5,-5 -7,-6 -2,-2 -3,-3 -4,-3 3,0 7,0 13,1 6,0 13,1 21,2 9,1 18,2 27,3 10,1 20,2 30,3 40,4 81,7 90,9 21,40 52,72 79,92 27,20 51,29 59,27 18,-5 33,-45 10,-73 -20,-25 -66,-43 -114,-52 13,0 34,0 59,0 24,-1 52,-2 78,-3l0 0c31,-1 59,-2 73,-1 17,5 55,30 69,40 -9,12 -12,33 4,50 21,24 52,14 58,-7 7,-21 -3,-67 -50,-53 -2,1 -4,2 -7,4 -9,-7 -40,-31 -48,-34 18,-1 89,-6 161,-10 35,-3 72,-5 102,-7 30,-2 54,-2 66,-2 0,0 0,0 0,0 17,6 38,14 61,21 23,8 48,15 73,19 49,7 67,1 65,-37z"/>
  </g>
 </g>
</svg>
