<?xml version="1.0" encoding="UTF-8"?>
<!DOCTYPE svg PUBLIC "-//W3C//DTD SVG 1.1//EN" "http://www.w3.org/Graphics/SVG/1.1/DTD/svg11.dtd">
<!-- Creator: CorelDRAW X7 -->
<svg xmlns="http://www.w3.org/2000/svg" xml:space="preserve" width="101.6mm" height="8.313mm" version="1.1" style="shape-rendering:geometricPrecision; text-rendering:geometricPrecision; image-rendering:optimizeQuality; fill-rule:evenodd; clip-rule:evenodd"
viewBox="0 0 10160 831"
 xmlns:xlink="http://www.w3.org/1999/xlink">
 <defs>
  <style type="text/css">
   <![CDATA[
    .fil0 {fill:#FEFEFE;fill-rule:nonzero}
   ]]>
  </style>
 </defs>
 <g id="Camada_x0020_1">
  <metadata id="CorelCorpID_0Corel-Layer"/>
  <g id="_876065936">
   <path class="fil0" d="M7504 216c54,28 108,41 163,48 27,4 54,6 81,9 3,0 6,0 8,1 -15,0 -30,1 -44,2 -15,1 -30,1 -44,2l2 21c67,-4 139,-7 216,-8 -17,9 -42,23 -71,38 -15,8 -31,16 -47,24 -17,9 -34,17 -52,26 -13,0 -27,-1 -41,-4 -31,-4 -61,-12 -81,-19 -2,-20 -16,-41 -37,-43 -26,-3 -48,22 -48,47 0,23 18,48 42,48 21,0 38,-18 42,-38 13,4 45,16 83,22 2,1 5,1 8,2 -3,1 -5,2 -8,3 -88,40 -155,54 -170,56 -2,-24 -21,-48 -44,-49 -28,0 -52,31 -47,61 5,25 30,47 55,42 19,-4 31,-22 35,-40 36,-2 108,-23 172,-49 7,-2 14,-5 21,-8 -5,11 -12,22 -19,33 -12,18 -27,36 -44,48 -16,-17 -45,-16 -60,1 -13,16 -12,42 2,58 14,16 38,19 55,6 15,-12 19,-35 11,-53 12,-8 25,-20 38,-34 19,-21 37,-47 46,-72 14,-8 29,-14 43,-22 14,-7 27,-14 41,-21 27,-14 53,-29 75,-42 4,26 8,59 0,93l0 0c-17,6 -40,11 -53,12l0 0c2,-15 -3,-34 -16,-42 -24,-16 -71,5 -77,39 -4,18 3,40 18,49 22,12 57,-6 70,-32 25,1 41,-2 51,-5 -8,19 -20,38 -40,55 -1,0 -2,-1 -3,-2 -7,-5 -15,-9 -23,-11 -9,-2 -17,-2 -26,0 -17,3 -31,12 -37,27 -9,22 4,51 23,64 14,10 32,11 48,7 16,-4 30,-15 35,-30 5,-14 1,-30 -7,-43 8,-6 18,-16 27,-29 10,-13 19,-29 26,-46 14,-35 21,-77 5,-117 5,-4 10,-7 15,-9 89,0 183,5 280,17 -17,2 -34,5 -52,10 -18,6 -36,13 -55,22 -98,50 -140,130 -155,161 17,3 38,5 61,5 12,0 25,-1 38,-2 13,-2 27,-4 41,-8 16,-3 32,-8 47,-14 14,-6 28,-13 42,-20 13,-7 25,-15 37,-23 12,-8 23,-17 33,-25 20,-17 38,-35 52,-50 14,-16 25,-29 32,-39 15,3 30,5 45,8 15,3 29,6 44,9 7,2 15,3 22,5l22 3c15,2 30,5 44,7 15,2 30,5 45,7 15,2 30,4 45,6 30,4 60,8 91,12l47 6 24 3 23 3c-23,22 -57,46 -103,69 -22,11 -48,22 -76,31 -14,5 -28,10 -43,14 -8,2 -16,4 -23,6 -8,2 -16,4 -25,6 -21,-5 -40,-16 -57,-29 -8,-6 -16,-13 -25,-19 -4,-3 -8,-6 -12,-9 -4,-3 -8,-5 -12,-8 5,-25 -13,-51 -36,-59 -4,-1 -7,-2 -11,-3 -4,0 -7,0 -11,0 -7,1 -14,3 -20,7 -13,7 -23,18 -26,33 -4,25 13,51 36,58 22,7 49,-1 62,-21 5,3 9,7 15,11 5,5 11,9 18,15 13,10 29,21 48,29 -22,4 -46,7 -71,9 -6,1 -12,1 -18,1 -6,0 -11,0 -17,0 -12,1 -24,1 -37,0 0,-5 -2,-11 -5,-16 -2,-4 -5,-9 -8,-13 -8,-8 -17,-14 -26,-17 -8,-2 -17,-3 -25,-2 -9,2 -17,5 -25,9 -15,9 -25,23 -26,39 -2,15 6,30 18,40 5,6 12,10 19,13 7,3 15,4 23,4 20,-1 45,-15 53,-38 19,2 40,3 64,2 26,-1 55,-5 85,-10 -5,21 -32,74 -80,90 -14,-22 -44,-32 -68,-22 -25,11 -38,43 -27,66 6,13 19,21 32,23 14,3 28,1 42,-7 16,-10 28,-28 26,-47 21,-7 45,-22 65,-41 19,-19 34,-42 36,-66 7,-2 13,-3 19,-5 6,-1 13,-3 19,-4 13,-4 26,-7 39,-11 -43,38 -63,96 -24,181 56,-13 98,-47 124,-89 26,-42 36,-93 27,-140 11,-5 22,-11 33,-17 11,-5 22,-11 32,-18 21,-12 40,-26 57,-39 34,4 68,6 102,10 33,3 67,5 100,8 16,1 32,2 48,3 17,1 33,2 49,3 31,2 63,4 94,5 8,0 15,1 22,1 -16,8 -42,21 -73,34 -30,13 -66,27 -104,39 -14,-1 -28,-5 -42,-9 -30,-9 -59,-21 -77,-32 1,-20 -9,-43 -30,-49 -23,-7 -50,13 -55,37 -5,23 8,51 32,56 22,4 42,-11 50,-30 11,7 42,23 79,35 3,1 6,2 8,3 -3,1 -5,2 -8,2 -24,7 -47,12 -67,16 -21,3 -39,5 -55,7 -32,2 -54,2 -62,2 3,-24 -10,-52 -34,-58 -27,-7 -59,18 -61,48 -1,26 20,53 47,54 20,0 37,-14 44,-30 19,2 48,2 81,-1 33,-3 70,-9 105,-17 7,-1 15,-3 22,-5 -6,9 -14,20 -24,30 -15,16 -34,31 -53,40 -15,-18 -44,-23 -63,-9 -17,13 -22,38 -9,57 12,18 37,26 57,16 19,-10 27,-31 22,-50 13,-6 29,-16 44,-28 23,-18 45,-41 58,-66 31,-10 61,-22 90,-34 28,-12 55,-25 78,-37 2,25 6,59 -4,93l0 0c-18,5 -43,8 -57,9l0 0c4,-15 0,-34 -13,-44 -23,-17 -72,-1 -83,32 -6,17 -1,40 14,51 22,14 61,0 77,-25 25,2 43,0 54,-3 -9,19 -24,37 -47,53 -1,-1 -2,-1 -3,-2 -27,-23 -78,-21 -94,8 -12,21 -2,51 18,66 15,11 36,15 54,11 18,-3 35,-13 41,-27 6,-14 2,-30 -6,-43 20,-12 45,-39 61,-73 16,-34 23,-76 9,-117 5,-3 10,-6 15,-8 66,2 131,3 193,3 15,0 30,0 44,0 15,0 29,-1 44,-1 14,0 28,0 42,-1 7,0 14,0 21,0 7,0 14,-1 20,-1 -9,3 -19,7 -30,10 -61,17 -102,25 -135,30 -34,5 -59,10 -88,22 -41,17 -96,54 -149,135 7,2 21,6 42,10 21,4 48,7 79,7 15,0 32,0 49,-2 17,-2 35,-6 53,-10 18,-5 36,-11 54,-19 19,-9 37,-19 55,-31 18,-12 34,-25 48,-39 13,-13 25,-28 35,-41 21,-28 34,-54 43,-74 34,-1 67,-3 98,-5 15,-1 31,-2 45,-3 15,-1 29,-3 43,-4 14,-1 28,-2 41,-3 7,-1 13,-1 19,-2 7,0 13,-1 19,-2 24,-2 47,-4 67,-6 20,-2 38,-4 54,-5 15,-2 29,-3 40,-4 21,-2 33,-3 33,-3l-8 -47c0,0 -11,3 -32,8 -11,2 -24,4 -39,8 -15,3 -33,7 -53,9 -19,4 -41,7 -65,10 -6,1 -13,2 -19,3 -6,1 -12,1 -19,2 -13,1 -26,3 -40,4 -18,2 -36,4 -56,6 -8,-22 -24,-56 -55,-87 -53,-52 -113,-64 -134,-67 0,9 -1,77 53,125 12,10 23,18 35,23 11,6 23,9 34,12 -11,0 -21,1 -32,2 -11,1 -22,1 -33,2 -16,1 -32,2 -49,2 -8,1 -17,1 -25,2 -9,0 -17,0 -26,1 -17,-16 -34,-32 -53,-48 -10,-8 -20,-16 -30,-23 -10,-8 -21,-16 -32,-23 -20,-73 -48,-101 -81,-122 7,-26 -5,-54 -26,-66 -28,-15 -65,0 -77,32 -10,28 3,63 32,73 26,10 54,-4 67,-27 33,21 43,49 58,92 -13,-8 -26,-15 -40,-21 -14,-7 -29,-14 -44,-20 -31,-12 -64,-21 -102,-29 6,-24 -5,-51 -26,-64 -13,-8 -29,-9 -43,-5 -14,4 -27,14 -35,29 -15,28 -5,66 23,81 27,14 59,1 74,-23 39,8 90,19 148,50 -17,14 -40,24 -74,26 -10,-22 -39,-32 -62,-29 -24,4 -49,27 -47,52 2,29 37,50 67,44 24,-5 47,-28 45,-53 37,0 66,-8 91,-29 17,10 34,21 51,34 -8,5 -18,8 -24,11 -8,-16 -25,-26 -42,-24 -25,3 -44,28 -39,53 3,15 14,26 27,31 -29,0 -58,-1 -88,-1 -15,-1 -30,-1 -45,-2 -15,0 -30,-1 -46,-1 -3,-1 -7,-1 -10,-1 -9,-18 -26,-49 -53,-84 -28,-35 -65,-72 -114,-103 -15,-9 -31,-17 -48,-25 -22,-10 -44,-17 -65,-22 -21,-6 -40,-8 -59,-10 -36,-4 -66,-2 -86,1 29,75 71,120 98,143 23,19 47,34 71,46 25,12 51,21 77,29 12,3 25,7 38,10 13,3 26,6 39,9 3,0 5,1 8,1 -14,-1 -29,-2 -43,-2 -15,-2 -29,-3 -43,-4 -33,-2 -66,-5 -99,-8 -33,-3 -66,-6 -99,-10 -21,-37 -62,-95 -131,-144 -12,-9 -25,-16 -37,-23 -13,-7 -25,-13 -37,-19 -24,-10 -47,-17 -68,-23 -39,-10 -72,-11 -89,-11 5,20 13,47 28,75 7,13 16,27 27,41 6,7 12,14 19,20 7,7 14,13 22,19 25,20 52,33 78,43 -54,-7 -109,-15 -162,-23 -13,-2 -27,-4 -40,-6l-10 -2 -10 -2 -20 -4c-14,-3 -27,-6 -40,-8 -14,-3 -28,-5 -41,-8 13,-31 22,-77 22,-96 15,-6 31,-24 40,-35 6,2 12,2 18,2 6,0 12,-1 17,-3 11,-5 20,-13 25,-25 7,-20 -3,-45 -21,-54 -3,-2 -7,-3 -10,-4 -2,0 -4,-1 -6,-1 -2,0 -4,0 -6,0 -9,1 -17,3 -25,7 -15,7 -26,20 -27,34 -1,14 8,27 20,36 -12,15 -28,26 -28,26 -11,-13 -19,-34 -22,-45 16,-10 27,-28 25,-47 -2,-14 -11,-28 -24,-37 -13,-8 -30,-13 -47,-11 -9,2 -17,5 -24,9 -7,5 -12,10 -16,17 -9,13 -11,29 -5,44 11,25 44,39 71,33 4,12 8,22 12,30 4,7 6,12 6,12 -14,-2 -34,1 -45,3 -4,-20 -24,-39 -44,-36 -24,3 -37,31 -31,53 4,18 21,35 41,34 19,-1 33,-20 35,-39 10,0 21,0 29,0 9,1 16,2 20,4 -5,32 -21,68 -29,85 -13,-2 -26,-4 -39,-6 -12,-7 -24,-15 -35,-23 -12,-8 -22,-15 -32,-22 -18,-14 -31,-24 -31,-24 -9,-50 -20,-114 -37,-150 11,-11 18,-27 13,-42 -4,-14 -16,-24 -31,-30 -16,-5 -34,-6 -48,1 -22,10 -35,34 -28,55 9,24 42,37 70,29 22,48 38,121 33,119 -15,-6 -32,-14 -48,-21 -17,-8 -33,-16 -48,-24 -15,-8 -29,-16 -41,-22 -11,-7 -20,-13 -26,-17 2,-15 0,-31 -7,-45 -3,-7 -8,-13 -14,-17 -5,-5 -12,-8 -19,-9 -31,-6 -64,25 -65,57 -1,15 4,31 14,43 9,13 23,21 38,21 10,0 19,-3 27,-10 8,-6 14,-14 19,-22 71,47 159,86 179,95 24,19 48,39 63,51 -122,-14 -241,-19 -350,-17 -10,-17 -30,-48 -62,-80 -16,-16 -35,-33 -57,-48 -23,-15 -48,-29 -78,-41 -17,-7 -35,-12 -55,-17 -53,-12 -101,-12 -141,-8 -20,3 -38,6 -53,10 -16,4 -29,8 -39,12 50,66 103,99 136,117z"/>
   <path class="fil0" d="M2054 658c3,0 10,-1 20,-2 6,0 13,-1 20,-2 4,0 8,0 12,-1 4,0 9,-1 13,-2 9,-2 19,-4 29,-6 10,-3 20,-6 31,-9 10,-4 21,-8 32,-13 11,-5 22,-10 34,-16 2,-1 5,-3 8,-4 -3,0 -6,-1 -9,-1 -10,-1 -19,-2 -28,-4 -9,-2 -18,-3 -26,-5 -15,-4 -27,-8 -33,-11 -3,10 -9,20 -17,27 -9,7 -20,11 -32,10 -13,-2 -24,-10 -31,-20 -6,-10 -9,-22 -7,-34 2,-12 10,-23 19,-31 5,-4 10,-7 16,-8 5,-2 11,-3 17,-1 5,0 10,2 14,5 4,3 8,6 11,10 6,8 10,19 11,29 5,2 11,3 17,5 6,2 13,4 20,5 15,3 31,5 47,6 14,1 29,1 43,0 69,-42 127,-89 156,-112 -74,14 -145,27 -210,36l-3 -20c27,-4 55,-9 84,-14 -2,0 -5,1 -7,1 -14,0 -27,0 -40,0 -13,0 -26,-1 -39,-2 -13,-1 -26,-2 -39,-4 -6,-1 -13,-3 -19,-4 -6,-2 -12,-4 -18,-5 -6,-3 -12,-5 -18,-7 -5,-3 -10,-6 -16,-9 -2,-2 -5,-3 -7,-5 -3,-2 -6,-4 -8,-6 -6,-3 -10,-8 -16,-12 -7,-5 -15,-12 -25,-20 -4,-4 -9,-8 -14,-13 -2,-2 -5,-4 -7,-7 -2,-3 -5,-5 -7,-8 -18,-22 -36,-51 -50,-88 8,-2 20,-3 33,-5 13,-1 26,-2 48,-2 5,1 10,1 15,1 2,0 5,0 8,0l4 1 2 0 1 0c3,0 6,1 10,2 1,0 3,0 5,1 1,0 3,0 4,1 3,0 6,1 9,2 2,1 3,2 5,2 2,0 4,1 6,1 8,2 16,5 27,8 7,2 14,5 22,8 8,2 15,5 23,8 12,5 25,10 36,16 6,3 12,6 18,9 6,3 11,6 17,9 11,7 21,13 31,20 10,7 19,14 28,21 34,27 59,54 71,69 106,-20 220,-43 339,-64 -18,-8 -45,-19 -73,-32 -22,-3 -114,-18 -189,-51 -5,19 -17,38 -36,41 -28,6 -56,-23 -60,-54 -4,-31 19,-67 48,-68 27,0 49,33 50,62 25,13 106,38 171,44 5,1 -29,-65 -61,-105 -23,13 -56,8 -69,-13 -12,-19 -5,-46 12,-60 22,-19 62,-15 77,9 7,14 6,31 -2,44 25,31 52,90 74,136 0,0 57,25 111,37 13,-2 26,-4 39,-6 1,-19 4,-58 -1,-89 -8,-2 -27,4 -46,10 4,19 -3,41 -20,48 -18,7 -39,-5 -48,-20 -12,-20 -7,-51 13,-60 18,-8 41,4 51,21 9,-4 26,-13 39,-16 0,0 -15,-14 -29,-35 -23,14 -55,11 -72,-10 -20,-25 -10,-64 19,-80 27,-14 64,-2 76,25 7,17 3,38 -8,52 7,10 20,27 34,36 0,0 11,-16 17,-34 -14,-4 -26,-15 -29,-27 -8,-28 23,-63 54,-59 20,3 39,21 38,44 0,24 -23,44 -47,44 -4,14 -13,36 -25,46 6,18 13,66 11,99 107,-18 218,-34 329,-47 -14,-1 -29,-4 -43,-7 -15,-3 -30,-8 -45,-14 -38,-15 -69,-36 -93,-58 -25,-21 -43,-44 -56,-62 19,-6 55,-14 102,-16 23,-1 49,-1 76,3 28,4 57,11 87,22 82,31 135,81 163,113 34,-3 68,-5 101,-8 34,-1 67,-4 101,-5 28,-1 57,-2 87,-3 -2,0 -5,-1 -7,-1 -28,-3 -54,-6 -81,-10 -55,-9 -108,-23 -162,-53 -32,-18 -83,-53 -131,-121 20,-6 52,-15 92,-18 40,-4 88,-2 139,11 20,5 38,11 55,19 28,12 53,26 75,42 22,16 41,32 56,49 16,16 28,32 38,45 10,14 18,27 23,35 108,-1 226,2 348,10 -16,-11 -40,-29 -65,-48 -10,-4 -37,-15 -70,-31 -16,-8 -34,-17 -53,-27 -18,-10 -37,-21 -54,-33 -9,17 -25,32 -45,33 -29,0 -53,-34 -51,-64 2,-32 34,-63 63,-58 29,5 45,42 39,71 12,8 37,23 66,38 30,16 64,31 96,42 5,2 -14,-71 -36,-117 -26,8 -59,-4 -68,-28 -7,-21 5,-46 26,-55 27,-14 68,-1 76,26 5,15 -1,31 -11,43 17,35 30,99 41,149 0,0 13,9 31,22 10,6 20,13 32,20 12,8 24,15 36,21 14,1 27,2 40,3 7,-17 21,-54 24,-86 -7,-3 -28,-2 -49,-1 0,19 -14,39 -33,41 -19,2 -37,-14 -42,-31 -7,-22 5,-51 28,-55 20,-3 41,14 46,33 10,-2 30,-6 44,-6 0,0 -11,-17 -20,-40 -13,3 -28,2 -41,-2 -14,-5 -25,-15 -31,-27 -13,-29 5,-65 41,-72 33,-7 68,14 73,43 3,19 -7,37 -23,49 2,5 5,13 10,21 4,8 9,16 15,22 0,0 14,-12 24,-28 -12,-8 -20,-21 -20,-35 1,-28 39,-53 67,-41 18,9 30,32 24,53 -7,24 -34,36 -57,30 -7,11 -21,30 -35,37 1,19 -5,66 -17,98 54,7 109,14 163,20 55,7 110,13 165,19 -27,-10 -54,-22 -80,-41 -16,-12 -30,-24 -43,-38 -12,-13 -22,-27 -31,-41 -18,-27 -29,-54 -37,-74 20,-1 57,1 99,9 43,9 94,27 145,61 71,46 113,105 135,142 34,3 67,5 100,8 33,2 66,5 99,8 28,1 57,3 86,5 -2,0 -5,-1 -7,-1 -27,-6 -53,-12 -78,-19 -52,-15 -103,-36 -149,-74 -28,-22 -71,-67 -102,-141 19,-3 50,-6 87,-2 38,2 81,11 127,30 18,8 34,17 49,25 101,60 151,152 168,188 54,3 109,7 167,9 28,1 57,3 87,4 15,1 29,1 44,2 15,1 30,1 45,2 -16,-12 -40,-29 -64,-47 -10,-4 -36,-15 -68,-31 -32,-16 -69,-38 -101,-63 -9,17 -26,32 -45,31 -28,-1 -48,-36 -45,-66 4,-32 36,-61 63,-55 26,6 39,43 33,72 22,19 93,62 154,83 5,2 -14,-71 -35,-117 -24,8 -55,-4 -62,-28 -7,-21 6,-46 25,-56 25,-13 62,0 70,27 4,15 -1,31 -11,42 16,36 29,100 40,149 0,0 13,9 31,22 19,12 43,27 68,38 13,1 26,1 39,2 6,-18 16,-56 16,-87 -7,-4 -26,-2 -45,1 0,19 -11,39 -29,42 -19,3 -37,-13 -42,-30 -7,-21 4,-51 25,-55 18,-4 38,12 44,31 9,-3 28,-8 41,-8 0,0 -12,-17 -21,-40 -24,9 -55,0 -67,-25 -13,-28 4,-65 34,-74 29,-8 60,11 67,40 4,18 -4,37 -17,49 4,11 13,31 25,42 0,0 14,-14 22,-30 -12,-7 -21,-19 -22,-33 -2,-28 33,-57 62,-47 18,6 32,28 28,50 -5,24 -30,39 -53,35 -6,12 -19,33 -32,41 3,19 0,66 -8,99 54,1 108,2 163,4 55,1 110,2 166,3 -28,-7 -56,-17 -84,-33 -69,-41 -106,-103 -124,-143 20,-2 55,-4 99,1 22,2 46,7 72,14 26,8 52,18 80,33 75,41 122,95 147,130 67,0 134,1 200,1 28,0 57,1 87,1 -3,0 -5,-1 -8,-1 -27,-5 -53,-9 -79,-14 -54,-12 -106,-29 -155,-63 -30,-21 -77,-61 -115,-133 20,-5 51,-10 89,-10 38,0 83,6 131,22 18,6 35,14 51,22 53,27 94,62 123,96 30,33 49,64 58,82 27,0 54,0 82,1 6,0 12,-1 19,-1l9 0 11 -1c6,-1 13,-1 20,-2 7,0 14,-1 20,-2 56,-5 114,-15 173,-24 -9,-4 -20,-9 -33,-15 -12,-6 -25,-12 -39,-19 -5,-1 -14,-3 -26,-6 -12,-3 -28,-7 -44,-12 -8,-3 -16,-6 -25,-9 -8,-3 -17,-7 -25,-11 -9,-4 -17,-9 -25,-13 -4,-3 -8,-5 -12,-8 -3,-2 -6,-5 -9,-8 -2,9 -6,18 -12,24 -2,3 -6,6 -10,7 -5,2 -9,3 -14,3 -28,0 -50,-35 -48,-65 3,-32 32,-62 59,-57 4,1 7,2 10,4 1,0 2,1 3,2 0,1 1,2 2,3 2,4 5,10 7,17 4,13 7,29 6,44 1,1 2,2 3,3 2,1 4,3 5,4 4,2 8,5 13,8 5,3 10,6 16,9 6,2 13,5 20,8 27,12 61,22 92,27 5,1 -26,-67 -53,-109 -11,6 -23,7 -34,4 -11,-4 -20,-11 -25,-23 -8,-20 -1,-46 12,-58 10,-8 23,-11 35,-8 13,3 25,11 31,23 6,14 5,31 -2,44 21,32 45,92 66,138 0,0 3,2 9,5 6,3 15,6 25,10 20,9 47,19 74,25 13,-2 25,-5 38,-7 2,-18 5,-57 -1,-89 -8,-2 -26,4 -45,11 4,18 -3,41 -20,47 -17,7 -38,-5 -46,-21 -12,-19 -7,-50 13,-59 17,-8 39,4 49,22 8,-5 25,-14 38,-17 0,0 -14,-14 -28,-34 -22,13 -54,10 -70,-11 -19,-26 -10,-65 18,-79 26,-14 61,-2 73,25 7,17 4,37 -7,52 7,9 20,27 34,35 0,0 10,-16 15,-34 -13,-4 -25,-14 -28,-27 -8,-28 21,-63 52,-59 19,3 38,21 38,43 0,25 -23,45 -46,46 -4,13 -12,35 -23,46 6,18 13,65 11,98 107,-18 217,-38 328,-54 -29,-2 -59,-7 -90,-18 -76,-28 -124,-82 -150,-117 9,-3 23,-7 40,-10 16,-4 37,-7 60,-9 46,-3 102,0 163,21 20,7 39,15 57,24 17,9 33,19 46,28 28,20 49,40 63,56 68,-8 135,-14 202,-19l2 21c-68,5 -136,11 -205,19 -13,17 -29,34 -46,51 -17,17 -35,34 -55,50 21,43 24,95 11,142 -13,47 -42,90 -87,118 -59,-70 -59,-132 -30,-180 -21,15 -43,29 -64,41 9,47 -23,105 -53,132 8,17 4,38 -6,52 -16,22 -52,31 -73,12 -20,-17 -17,-52 2,-72 18,-18 51,-20 69,-3 34,-30 41,-88 39,-109 -49,27 -95,48 -130,57 1,24 -21,47 -41,55 -33,12 -77,-5 -84,-34 -4,-15 3,-32 16,-45 12,-13 30,-23 48,-24 20,0 46,10 56,30 46,-18 88,-37 126,-58 -41,-4 -70,-23 -92,-26 -5,23 -27,41 -50,42 -26,2 -52,-16 -56,-42 -4,-29 22,-57 52,-58 25,-1 50,16 54,42 38,6 76,32 117,28 56,-33 103,-68 140,-102 37,-33 65,-65 82,-93 -32,4 -64,8 -95,13 -122,17 -243,39 -360,59 -7,23 -22,66 -52,112 -30,45 -74,92 -144,123 -30,13 -60,21 -89,25 -7,1 -14,1 -21,2 -7,0 -14,0 -20,1 -6,0 -14,0 -21,-1 -6,0 -13,0 -19,-1 10,-16 30,-44 53,-77 25,-33 56,-71 100,-105 16,-13 32,-24 48,-34 15,-9 31,-17 46,-24 -47,8 -93,15 -139,21 -5,0 -11,1 -17,2 -5,0 -11,1 -16,2 -12,1 -23,2 -34,3 -11,1 -22,2 -32,2 -5,0 -10,0 -16,0 -5,1 -11,0 -16,0 -5,3 -10,6 -15,9 16,41 10,83 -5,118 -15,34 -39,62 -57,74 8,13 12,29 7,42 -3,8 -9,14 -15,19 -7,5 -15,9 -24,11 -17,4 -37,1 -52,-9 -19,-14 -31,-44 -20,-65 14,-29 63,-35 90,-13 1,1 2,2 3,3 22,-17 36,-36 44,-55 -10,3 -28,6 -53,4 -15,26 -52,42 -74,29 -15,-9 -21,-32 -16,-50 8,-33 56,-52 80,-36 13,10 18,28 15,43l0 0c13,-1 38,-4 55,-10l0 -1c9,-33 5,-67 1,-92 -45,25 -104,54 -163,78 -11,25 -31,50 -53,70 -14,13 -28,24 -41,31 7,18 1,40 -17,51 -19,12 -44,6 -57,-11 -14,-18 -11,-43 4,-58 18,-16 47,-13 62,4 19,-10 36,-26 50,-44 8,-10 15,-21 21,-31 -7,2 -14,5 -21,7 -68,21 -145,34 -181,32 -6,17 -21,33 -41,35 -26,2 -50,-23 -51,-49 -1,-30 27,-58 55,-54 24,4 40,30 39,54 16,-1 86,-6 179,-39 3,-1 5,-2 8,-3 -3,-1 -5,-2 -8,-2 -37,-10 -69,-24 -81,-30 -7,20 -25,37 -47,34 -24,-3 -40,-29 -37,-53 4,-24 28,-46 53,-41 20,4 33,26 33,46 19,9 48,20 79,27 14,3 28,5 42,6 73,-30 140,-64 173,-81 -75,-1 -148,-2 -214,-2 -67,-1 -135,-1 -204,-2 -32,32 -71,61 -114,87 28,92 -17,204 -121,245 -48,-79 -36,-140 1,-182 -24,10 -48,20 -72,28 1,48 -43,100 -79,121 5,18 -3,38 -16,49 -21,19 -59,20 -76,-2 -16,-22 -7,-55 16,-70 23,-14 56,-11 70,10 41,-23 59,-79 61,-100 -54,18 -104,29 -141,31 -5,24 -30,42 -53,45 -34,6 -74,-20 -75,-49 -1,-32 41,-61 77,-55 20,4 43,18 49,40 50,-8 95,-19 137,-32 -40,-11 -65,-36 -86,-43 -9,22 -35,34 -58,31 -26,-4 -48,-26 -47,-52 2,-30 34,-52 63,-47 24,4 46,26 46,52 35,14 69,46 110,50 63,-23 115,-49 158,-77 42,-27 74,-55 95,-80 -32,0 -64,-1 -96,-1 -122,-2 -244,-4 -363,-8 -11,22 -35,60 -73,99 -39,38 -92,75 -162,92 -31,8 -60,11 -86,10 -25,0 -48,-3 -66,-6 8,-16 25,-43 51,-72 26,-30 63,-62 111,-88 18,-10 36,-18 54,-24 17,-6 34,-11 50,-15 -48,-1 -95,-4 -141,-6 -23,-1 -46,-2 -68,-3 -23,-1 -45,-2 -67,-3 -5,2 -10,5 -15,8 27,83 -34,166 -72,189 7,13 10,29 5,43 -13,29 -65,38 -93,15 -20,-15 -29,-45 -18,-66 16,-28 66,-31 93,-7 1,0 2,1 3,2 22,-16 37,-34 46,-52 -10,2 -28,4 -53,1 -16,25 -55,39 -76,25 -15,-11 -20,-34 -14,-51 11,-33 60,-49 83,-31 13,10 16,29 13,43l0 1c13,-1 38,-3 56,-9l0 0c10,-33 7,-67 5,-92 -46,23 -106,49 -167,69 -13,24 -35,48 -58,67 -15,12 -30,21 -44,27 6,19 -2,41 -20,50 -20,11 -45,3 -57,-15 -13,-18 -9,-44 8,-57 19,-14 48,-10 62,9 20,-9 38,-24 53,-41 9,-10 17,-20 24,-30 -8,2 -15,4 -22,6 -70,16 -148,23 -184,19 -8,17 -24,31 -44,31 -27,0 -48,-27 -47,-53 1,-30 32,-56 60,-49 23,6 37,33 34,57 16,0 87,0 182,-26 3,-1 6,-2 9,-3 -3,-1 -6,-2 -8,-2 -37,-12 -68,-29 -80,-36 -7,19 -27,35 -49,31 -24,-5 -37,-32 -32,-55 5,-25 31,-45 55,-38 20,6 31,29 29,49 19,10 48,23 78,32 14,4 28,7 41,8 38,-12 74,-26 105,-39 31,-12 56,-24 73,-32 -18,-1 -37,-2 -56,-3 -18,-2 -36,-3 -54,-4 -36,-2 -70,-5 -104,-7 -33,-2 -66,-5 -100,-8 -34,-2 -68,-5 -102,-8 -34,28 -76,54 -121,77 10,47 2,98 -23,140 -12,22 -28,41 -49,57 -20,16 -44,28 -71,36 -41,-84 -23,-143 18,-182 -25,9 -51,16 -75,22 -3,48 -53,96 -90,113 3,18 -6,37 -20,47 -22,17 -59,15 -74,-10 -13,-22 -1,-55 23,-68 22,-11 54,-4 67,17 21,-9 37,-27 49,-45 11,-19 18,-37 20,-48 -56,13 -105,18 -142,16 -6,25 -33,39 -55,41 -2,0 -4,0 -6,0 -2,0 -4,0 -6,0 -4,-1 -8,-1 -11,-3 -8,-2 -15,-6 -21,-11 -12,-10 -20,-24 -20,-39 0,-31 40,-59 75,-51 19,6 40,23 45,45 49,-3 94,-9 137,-19 -38,-15 -61,-42 -81,-51 -11,21 -37,31 -60,25 -25,-6 -45,-31 -42,-56 4,-30 38,-48 66,-41 24,7 44,31 41,56 17,9 33,22 50,34 17,12 35,23 55,27 65,-17 120,-39 165,-62 44,-24 78,-49 101,-72 -32,-3 -64,-6 -95,-9 -61,-7 -121,-13 -182,-20 -60,-7 -120,-15 -179,-22 -6,10 -16,24 -30,41 -13,16 -30,35 -49,53 -10,9 -21,18 -32,27 -11,8 -24,17 -37,25 -13,8 -27,15 -42,21 -7,3 -15,6 -23,9 -8,3 -16,5 -24,7 -29,8 -57,11 -81,12 -25,0 -46,-2 -64,-5 8,-15 22,-43 47,-74 25,-30 60,-63 108,-89 19,-10 37,-18 54,-24 18,-6 35,-10 51,-13 -96,-7 -190,-9 -278,-10 -5,3 -10,6 -16,9 16,41 10,83 -5,117 -14,35 -36,63 -54,76 8,12 12,28 8,42 -11,30 -57,43 -86,23 -19,-14 -32,-43 -22,-65 12,-29 60,-36 87,-15 1,1 2,2 3,3 21,-18 34,-36 42,-56 -11,4 -27,6 -52,5 -14,27 -49,44 -71,31 -15,-9 -22,-31 -19,-49 8,-34 55,-54 79,-38 13,9 18,27 16,42l-1 0c14,-1 38,-5 54,-11l0 0c9,-34 4,-68 1,-93 -46,25 -103,56 -160,82 -10,26 -29,52 -49,72 -13,14 -26,26 -38,33 7,18 3,41 -13,53 -18,13 -42,9 -56,-8 -14,-16 -14,-42 0,-57 16,-18 44,-17 60,0 18,-12 33,-29 46,-47 8,-11 14,-22 19,-32 -6,2 -13,5 -20,7 -33,12 -68,24 -99,31 -31,8 -58,13 -76,14 -4,17 -17,35 -36,38 -25,5 -50,-18 -54,-44 -4,-29 21,-60 49,-58 23,1 41,25 43,50 7,-1 28,-5 58,-13 15,-4 32,-8 51,-15 19,-6 40,-14 63,-24 3,-1 5,-2 8,-3 -3,0 -6,-1 -8,-2 -38,-8 -70,-19 -82,-25 -5,20 -22,38 -44,38 -24,-1 -41,-26 -40,-50 1,-25 23,-48 48,-45 21,3 36,24 37,44 19,8 49,16 80,21 14,3 28,4 42,5 71,-33 137,-68 171,-86 -19,0 -38,0 -57,0 -18,0 -37,1 -55,1 -36,1 -71,3 -104,4 -34,1 -68,3 -102,5 -34,3 -68,5 -103,8 -29,34 -65,67 -104,98 19,44 21,95 6,142 -14,46 -45,89 -90,116 -56,-72 -55,-134 -24,-181 -22,14 -44,27 -66,39 9,47 -25,104 -55,131 7,16 3,37 -7,51 -16,22 -51,30 -71,10 -18,-18 -16,-52 3,-71 18,-18 50,-20 67,-2 35,-29 43,-87 42,-108 -50,26 -95,45 -130,53 1,25 -20,47 -40,55 -32,12 -74,-5 -81,-34 -8,-31 26,-68 62,-69 20,0 45,10 55,30 45,-16 87,-35 125,-54 -20,-2 -37,-9 -52,-15 -15,-6 -28,-11 -38,-13 -6,23 -28,39 -51,41 -25,1 -51,-17 -55,-43 -4,-30 23,-57 52,-58 25,0 50,18 54,43 37,7 75,34 115,31 29,-15 55,-32 78,-48 24,-16 46,-33 65,-49 38,-32 67,-64 85,-90 -32,3 -64,6 -96,10 -122,13 -244,31 -361,50 -8,23 -23,66 -53,111 -29,45 -72,93 -135,125 -55,29 -107,37 -144,39 9,-34 36,-121 119,-194 31,-27 63,-46 93,-60 -95,17 -186,35 -273,52 -4,4 -8,7 -13,12 47,74 9,169 -24,200 11,11 18,26 16,40 -3,16 -16,29 -33,37 -18,7 -38,9 -56,1 -23,-10 -40,-37 -33,-60 5,-16 20,-27 37,-32 17,-6 38,-6 54,2 1,1 2,2 3,2 18,-21 28,-42 32,-62 -9,5 -26,11 -51,15 -10,28 -44,51 -69,42 -18,-7 -28,-28 -26,-46 2,-17 13,-33 28,-42 15,-10 33,-14 46,-8 15,6 23,24 23,39l0 0c13,-4 37,-12 52,-22l0 0c2,-35 -8,-67 -17,-91 -39,34 -91,74 -147,108 -3,13 -9,27 -17,40 -7,13 -16,26 -26,37 -13,15 -27,29 -42,37 10,17 6,40 -13,53 -22,14 -55,12 -75,-6 -19,-17 -15,-42 4,-57 5,-5 12,-8 18,-10 7,-2 13,-3 20,-3 7,0 13,1 20,3 6,1 11,4 16,8 10,-6 19,-14 27,-23 8,-9 15,-18 21,-28 8,-11 13,-23 18,-34 -7,3 -14,7 -21,10 -34,16 -72,28 -109,36 -10,2 -19,4 -28,5 -9,1 -17,2 -25,2 -7,0 -14,1 -20,1 -6,0 -11,0 -15,0 -7,17 -21,33 -43,34 -29,1 -52,-26 -52,-52 1,-30 32,-56 60,-51 6,1 12,4 17,7 4,4 8,8 11,13 7,10 10,23 10,35z"/>
   <path class="fil0" d="M571 164c1,-1 2,-1 3,-2 1,0 3,0 4,-1 3,-1 6,-2 9,-3 7,-2 14,-5 22,-7 15,-4 36,-8 59,-11 11,-2 23,-2 35,-3 12,0 25,0 38,0 13,1 27,3 40,5 14,2 28,5 42,8 21,6 41,13 59,21 60,27 102,65 131,101 29,35 46,68 54,86 109,11 225,30 344,52 -14,-14 -36,-34 -57,-56 -19,-10 -100,-57 -165,-112 -11,16 -30,30 -50,27 -29,-3 -50,-40 -45,-70 3,-16 13,-30 27,-40 14,-9 30,-14 45,-9 29,8 40,46 31,74 11,11 34,28 62,47 14,10 29,19 44,29 15,9 30,17 45,25 5,2 -5,-72 -21,-121 -27,4 -58,-11 -64,-36 -4,-22 11,-45 33,-52 29,-10 67,8 72,36 2,15 -5,30 -17,40 13,38 18,103 23,153 0,0 11,11 28,26 16,15 39,33 62,48 12,3 25,5 38,8 8,-17 24,-53 30,-84 -7,-5 -26,-6 -46,-6 -2,19 -17,37 -35,38 -20,0 -35,-19 -38,-36 -4,-22 11,-50 33,-51 20,-2 37,17 40,37 10,-1 29,-4 42,-2 0,0 -9,-18 -15,-42 -25,5 -55,-9 -63,-35 -10,-30 13,-64 45,-68 15,-2 30,3 41,12 11,9 19,23 20,37 1,19 -10,37 -25,47 3,11 9,32 19,44 0,0 16,-11 26,-26 -10,-8 -18,-22 -16,-35 2,-29 41,-51 67,-38 17,9 28,33 21,54 -9,23 -36,34 -58,27 -8,11 -23,29 -37,35 -1,19 -10,66 -24,97 107,19 215,38 323,51 -13,-5 -26,-10 -39,-17 -13,-7 -26,-15 -39,-25 -62,-49 -88,-116 -100,-158 19,1 53,3 94,14 42,11 89,29 137,63 67,46 109,102 132,138 17,0 34,0 51,1 7,0 15,0 23,0 7,0 15,0 23,0 7,-1 15,-1 23,-2 8,0 16,-1 24,-2 8,-1 15,-2 23,-3 8,-1 16,-2 24,-3l3 20c-8,1 -16,3 -24,4 -9,1 -17,2 -25,2l-12 2 -12 1c-9,0 -17,1 -25,1 -8,1 -16,1 -24,1 -8,0 -16,-1 -24,-1 -18,0 -35,-1 -52,-1 -32,30 -73,58 -119,81 11,47 4,97 -22,140 -13,22 -30,41 -52,56 -22,16 -47,28 -77,35 -21,-43 -26,-79 -20,-109 5,-29 21,-53 43,-72 -27,7 -53,14 -78,19 -5,48 -58,93 -97,108 2,18 -9,37 -24,46 -24,16 -63,11 -77,-14 -12,-23 2,-55 27,-66 13,-6 27,-6 40,-2 12,3 24,11 30,22 45,-16 71,-69 76,-89 -59,10 -110,12 -148,8 -7,24 -35,37 -58,38 -35,0 -69,-31 -66,-60 3,-32 49,-54 84,-43 19,6 39,24 42,47 51,0 98,-4 142,-11 -38,-17 -61,-45 -80,-55 -12,20 -40,28 -63,21 -24,-7 -43,-33 -38,-59 6,-29 41,-45 69,-36 24,8 42,33 38,58 34,19 62,56 104,65 67,-13 124,-34 169,-57 23,-12 42,-25 59,-37 17,-12 31,-25 42,-37 -32,-2 -63,-4 -95,-8 -120,-12 -239,-33 -356,-55 -15,19 -44,54 -88,86 -43,32 -101,61 -170,70 -60,8 -110,-1 -143,-11 5,-7 11,-17 20,-29 9,-11 21,-25 35,-38 28,-27 67,-56 118,-76 39,-15 76,-21 109,-24 -95,-17 -187,-33 -276,-44 -5,3 -10,5 -16,8 11,42 0,83 -18,116 -18,33 -43,58 -61,69 7,13 9,29 3,43 -7,14 -21,23 -37,26 -16,3 -34,-1 -46,-12 -16,-15 -26,-44 -16,-66 7,-14 22,-22 39,-23 16,-1 34,4 46,16 1,1 2,2 3,3 21,-15 36,-33 46,-51 -11,2 -27,3 -51,0 -16,25 -52,38 -71,24 -14,-10 -19,-33 -14,-50 5,-17 19,-29 35,-35 16,-6 34,-6 45,3 12,10 14,30 11,44l0 0c13,0 36,-2 54,-6l0 0c11,-33 11,-66 10,-92 -48,20 -108,45 -165,67 -6,13 -14,25 -23,37 -9,11 -18,22 -28,32 -13,13 -26,24 -38,31 7,19 2,41 -13,52 -16,12 -37,9 -49,-8 -13,-17 -14,-43 0,-58 7,-8 17,-12 27,-12 11,0 21,5 28,14 17,-11 32,-28 45,-45 8,-11 15,-22 20,-31 -6,2 -13,4 -20,6 -16,6 -32,10 -48,15 -8,2 -16,5 -24,7 -8,2 -15,4 -23,6 -7,2 -14,3 -21,5 -7,2 -13,3 -19,4 -12,3 -23,4 -31,5 -3,18 -14,35 -31,39 -25,6 -50,-15 -56,-40 -6,-29 17,-62 45,-62 23,1 41,24 43,49 3,-1 10,-2 19,-4 9,-2 21,-6 36,-9 7,-2 14,-4 23,-7 4,-1 8,-2 12,-4 5,-1 9,-2 14,-4 9,-3 19,-6 29,-9 10,-4 21,-8 32,-12 3,-1 6,-2 8,-3 -2,-1 -5,-1 -8,-2 -35,-10 -67,-22 -79,-28 -5,20 -22,38 -43,37 -23,-1 -40,-26 -40,-49 0,-12 6,-25 15,-33 9,-9 21,-15 33,-13 22,3 36,24 36,44 19,9 49,18 79,25 13,3 27,6 40,7 73,-29 142,-56 178,-70 -39,-4 -76,-7 -112,-10 -18,-1 -36,-2 -54,-2 -18,-1 -35,-2 -52,-2l0 -20c15,0 29,0 44,1 15,0 30,1 46,2 -3,-1 -6,-1 -8,-2 -7,-1 -14,-3 -21,-4 -7,-1 -13,-3 -20,-4 -14,-3 -27,-5 -41,-8 -14,-3 -27,-6 -41,-9 -14,-4 -28,-7 -42,-12 -14,-4 -28,-9 -42,-15 -14,-6 -28,-12 -42,-19 -17,-9 -40,-21 -65,-40 -4,-2 -7,-4 -10,-7 -3,-2 -7,-5 -10,-7 -6,-6 -12,-11 -19,-18 -6,-6 -13,-12 -19,-19 -4,-4 -7,-7 -10,-11 -4,-4 -6,-8 -9,-12z"/>
   <path class="fil0" d="M0 462c16,-24 42,-41 74,-54 32,-13 69,-22 109,-27 40,-5 81,-6 120,-3 39,3 75,11 103,23 5,-1 14,-2 25,-4 12,-2 27,-5 46,-8 -46,-2 -92,-16 -129,-47 -37,-31 -65,-79 -78,-148 56,-5 118,13 172,47 54,33 100,81 125,134 15,-2 31,-4 48,-7 9,-1 18,-3 27,-4 4,-1 9,-2 14,-2 4,-1 9,-2 14,-2 59,-8 125,-12 197,-12l13 0 0 20c-4,0 -9,0 -13,0 -71,0 -137,5 -194,12 -9,1 -18,2 -27,4 -4,17 -10,41 -23,68 -12,28 -33,57 -60,85 -41,41 -86,63 -125,75 -20,6 -37,10 -52,12 -15,2 -26,3 -32,3 8,-29 34,-105 105,-170 33,-29 66,-48 97,-61 -10,1 -20,3 -29,4 -41,5 -73,9 -94,11 -11,1 -20,2 -26,3 -31,28 -65,49 -99,64 -34,16 -69,25 -104,29 -70,7 -141,-9 -204,-45z"/>
  </g>
 </g>
</svg>
