<?xml version="1.0" encoding="UTF-8"?>
<!DOCTYPE svg PUBLIC "-//W3C//DTD SVG 1.1//EN" "http://www.w3.org/Graphics/SVG/1.1/DTD/svg11.dtd">
<!-- Creator: CorelDRAW X7 -->
<svg xmlns="http://www.w3.org/2000/svg" xml:space="preserve" width="101.6mm" height="5.371mm" version="1.1" style="shape-rendering:geometricPrecision; text-rendering:geometricPrecision; image-rendering:optimizeQuality; fill-rule:evenodd; clip-rule:evenodd"
viewBox="0 0 10160 537"
 xmlns:xlink="http://www.w3.org/1999/xlink">
 <defs>
  <style type="text/css">
   <![CDATA[
    .fil0 {fill:#015249;fill-rule:nonzero}
   ]]>
  </style>
 </defs>
 <g id="Camada_x0020_1">
  <metadata id="CorelCorpID_0Corel-Layer"/>
  <g id="_874571984">
   <path class="fil0" d="M6018 228c-6,-3 -13,-4 -20,-6 -7,-2 -15,-3 -22,-5 -4,0 -8,-1 -12,-1 -4,-1 -8,-1 -12,-1 -7,0 -15,0 -23,0 8,-2 19,-4 32,-7 13,-2 28,-4 44,-6 4,-1 8,-1 13,-1 4,-1 8,-1 12,-1 9,-1 18,-1 26,-2 18,-1 36,-1 53,-1l0 -22c-10,0 -21,0 -34,1 -6,0 -12,0 -19,0 -7,0 -14,1 -21,1 -14,1 -28,2 -43,4 -7,1 -14,2 -21,2 -4,1 -8,1 -11,2 -4,1 -7,1 -11,2 -14,3 -28,5 -40,8 -11,3 -22,5 -32,7 -19,4 -32,7 -36,7 0,-5 17,-26 33,-45 9,-10 17,-19 24,-26 3,-4 6,-7 9,-9 2,-2 4,-3 4,-3 9,-1 20,-3 31,-4 5,-1 10,-1 14,-1 5,0 9,-1 12,-1 4,15 19,26 35,24 18,0 34,-14 34,-32 0,-19 -19,-33 -39,-31 -16,2 -29,14 -31,28 -6,0 -12,1 -17,1 -6,1 -11,2 -15,2 -9,2 -15,3 -15,3 0,0 -1,-21 -2,-30 8,1 15,0 22,-2 7,-2 14,-5 20,-10 19,-16 19,-44 2,-60 -5,-4 -11,-8 -18,-10 -7,-2 -14,-4 -22,-3 -16,1 -32,7 -42,17 -3,3 -5,5 -6,8 -2,3 -2,5 -3,8 0,5 0,11 1,16 1,6 3,11 6,16 3,5 7,9 13,12 4,3 9,5 14,6 4,9 8,22 -1,31 -1,1 -2,2 -4,3 -1,2 -3,3 -4,5 -3,4 -7,8 -12,13 -8,10 -19,22 -30,35 -11,12 -23,24 -32,33 -10,9 -17,16 -20,17 0,0 -23,5 -52,11 -8,1 -15,3 -23,5 -8,1 -16,2 -24,4 -15,3 -31,5 -44,8 22,-7 44,-18 63,-33 18,-14 32,-32 37,-51 6,-23 2,-49 -9,-63 -11,-15 -30,-19 -55,1 -25,18 -42,52 -56,83 -3,8 -6,16 -10,24 -3,7 -6,14 -9,20 -6,13 -12,23 -18,28 -8,2 -16,4 -24,5 0,0 -5,1 -12,2 -7,1 -16,2 -25,3 -18,3 -36,5 -36,5 -4,0 -9,0 -14,0 -1,-8 36,-43 46,-53 14,7 31,4 41,-8 14,-15 11,-40 -5,-51 -13,-11 -33,-7 -44,6 -11,13 -11,32 -1,45 -15,19 -53,58 -76,63 -5,1 -21,3 -43,5 -11,1 -24,2 -37,4 -13,1 -28,2 -42,3 -15,1 -30,2 -45,3 -14,2 -28,2 -42,3 -27,1 -50,2 -65,3 11,-3 22,-6 33,-9 10,-4 20,-7 30,-11 21,-7 39,-15 56,-25 34,-19 60,-42 72,-68 9,-19 2,-36 -13,-47 -16,-10 -40,-15 -66,-9 -74,15 -110,50 -135,85 -12,18 -21,36 -32,51 -10,16 -20,28 -36,35l-11 1c-6,0 -16,0 -28,0 -1,0 -2,0 -3,0l0 21 0 -21c-20,1 -45,0 -73,0 -27,-1 -56,-2 -84,-3 -27,0 -53,-2 -72,-3 -19,-1 -33,-2 -36,-3 1,-5 22,-21 44,-35 22,-14 43,-27 44,-27 15,2 38,5 49,6 1,16 13,28 28,29 16,2 32,-12 33,-30 1,-18 -14,-34 -31,-33 -13,0 -25,9 -29,23 -21,-2 -41,-3 -41,-3 0,0 4,-21 5,-30 11,5 24,4 35,-4 18,-13 20,-40 9,-58 -12,-21 -40,-28 -58,-13 -17,15 -19,43 -5,61 3,4 6,7 10,9 1,9 1,24 -8,30 -7,5 -35,23 -63,40 -28,17 -56,33 -64,35 0,0 -23,-2 -53,-3 -30,-2 -66,-5 -92,-7 45,-3 99,-21 119,-56 11,-21 15,-46 7,-63 -7,-17 -24,-26 -55,-13 -58,24 -100,112 -129,128 -8,0 -17,0 -25,0l-73 -7c-5,0 -9,-1 -14,-2 1,-8 44,-35 57,-43 12,10 30,11 42,2 17,-11 20,-36 7,-51 -12,-14 -32,-15 -47,-4 -12,10 -17,28 -10,43 -19,16 -64,46 -88,46 -21,0 -216,-17 -275,-22 89,-11 175,-36 209,-83 25,-35 -15,-72 -72,-69 -80,4 -122,34 -151,67 -29,32 -46,66 -78,79l-11 -1c-6,-1 -16,-1 -29,-2 -1,0 -2,0 -3,0l0 0c-38,-3 -101,-7 -157,-11 -27,-1 -53,-2 -72,-4 -20,-1 -34,-2 -37,-2 1,-6 23,-21 45,-35 22,-14 44,-27 45,-27 16,2 39,6 50,7 1,16 13,29 28,30 16,2 33,-10 35,-28 2,-18 -13,-35 -31,-35 -14,-1 -26,9 -31,22 -21,-3 -41,-5 -41,-5 0,0 4,-20 5,-29 12,5 25,5 36,-3 20,-12 23,-40 12,-58 -12,-21 -43,-29 -62,-14 -19,14 -20,43 -6,61 3,3 6,7 10,9 1,9 2,23 -8,30 -7,4 -36,22 -65,40 -28,17 -56,34 -64,36 0,0 -6,0 -15,-1 -10,0 -23,0 -38,-1 -30,0 -67,0 -93,0 11,-1 23,-4 34,-8 12,-3 23,-7 34,-12 21,-11 39,-25 49,-43 11,-21 13,-47 5,-64 -8,-16 -27,-24 -59,-10 -30,13 -54,44 -73,73 -20,29 -35,56 -49,65 -8,1 -16,2 -25,3 0,0 -19,0 -37,1 -9,0 -18,0 -25,1 -7,0 -12,0 -12,0 -4,0 -9,0 -14,0 0,-8 40,-41 52,-50 13,9 31,7 43,-3 15,-13 17,-38 1,-52 -13,-12 -35,-11 -48,2 -12,11 -15,30 -5,44 -18,18 -59,55 -83,58 -5,1 -21,2 -43,5 -23,2 -51,4 -80,7 -59,6 -123,12 -152,14 43,-13 84,-30 118,-50 34,-20 60,-43 73,-69 10,-19 3,-36 -14,-47 -16,-10 -41,-14 -69,-8 -157,37 -142,150 -199,184l-12 1c-6,1 -15,2 -28,4 -1,0 -2,0 -3,0l1 5 -1 -5c-77,9 -251,26 -265,25 1,-11 77,-73 80,-74 15,0 39,0 49,0 3,15 17,26 32,25 17,-1 31,-16 30,-34 -1,-18 -18,-32 -36,-30 -13,2 -24,13 -26,27 -21,1 -41,2 -41,2 0,0 1,-21 1,-29 11,2 24,0 34,-9 17,-15 16,-43 2,-59 -15,-19 -45,-22 -61,-5 -16,17 -13,46 3,61 3,4 7,6 11,8 3,9 5,23 -3,31 -13,11 -102,87 -116,92 0,0 -93,9 -145,13 44,-10 94,-36 109,-74 16,-44 -3,-102 -59,-68 -55,33 -81,127 -108,148 -8,1 -16,2 -25,3l-73 5c-4,0 -9,0 -14,0 0,-8 38,-42 49,-51 14,8 32,6 43,-5 14,-14 14,-39 -2,-52 -13,-11 -34,-9 -46,4 -11,12 -13,31 -3,44 -17,18 -57,56 -80,59 -11,2 -65,6 -123,8 -30,2 -60,3 -87,3 -14,1 -26,1 -37,1 -11,1 -21,0 -28,1 22,-5 43,-11 64,-18 20,-7 39,-15 56,-24 35,-18 61,-40 75,-66 19,-38 -24,-68 -78,-58 -38,6 -66,18 -88,33 -22,15 -37,31 -50,49 -13,17 -23,35 -33,50 -5,8 -11,15 -17,21 -6,5 -12,10 -20,14l-12 -1c-5,0 -15,0 -28,0 -1,0 -2,0 -3,0 -5,0 -10,0 -15,0l0 0c-83,-2 -237,-11 -250,-13 3,-11 87,-61 90,-61 15,1 39,5 49,7 1,15 13,28 27,29 17,2 33,-11 34,-29 2,-18 -13,-34 -30,-34 -13,-1 -25,9 -30,22 -20,-2 -40,-4 -40,-4 0,0 4,-21 5,-29 11,4 24,4 35,-3 19,-13 22,-41 11,-59 -12,-20 -41,-28 -60,-13 -18,14 -19,43 -6,61 3,3 7,6 10,9 1,9 1,23 -8,29 -7,5 -36,23 -64,40 -28,17 -57,33 -65,34 0,0 -93,-6 -145,-9 45,-3 99,-21 119,-56 23,-42 13,-102 -48,-77 -59,24 -100,114 -129,130 -32,0 -69,0 -112,-8 0,-8 43,-36 56,-44 12,11 30,11 42,2 17,-12 20,-37 7,-52 -12,-13 -33,-14 -47,-3 -13,10 -18,29 -10,44 -19,15 -63,47 -87,48 -22,0 -217,-13 -276,-17 89,-13 174,-40 207,-88 25,-35 -16,-71 -73,-67 -161,11 -163,127 -228,150 -21,-2 -79,-6 -135,-11 -55,-5 -108,-9 -117,-10 0,0 22,-21 31,-30 23,20 63,-2 58,-32 -6,-39 -78,-37 -74,-2 1,9 4,17 7,23 -10,8 -48,37 -61,37 -35,2 -82,1 -114,1 32,-4 55,-12 72,-21 26,-13 49,-38 29,-50 -10,-5 -35,-11 -67,-3 -33,7 -73,26 -114,70 -11,-1 -70,-4 -134,-8 -64,-4 -134,-9 -168,-16 -16,-4 -15,56 -4,55 79,-6 194,-7 294,-4 50,2 96,4 133,6 36,1 62,3 72,4 27,50 74,120 112,146 40,27 73,-17 64,-59 -8,-37 -50,-67 -116,-85 55,0 230,4 299,20 10,3 35,35 45,47 -9,9 -13,22 -10,36 4,20 22,33 42,31 20,-1 36,-18 37,-37 1,-26 -26,-48 -50,-42 -4,1 -7,3 -10,4 -15,-13 -26,-38 -26,-38 35,4 134,9 162,10 34,35 90,148 138,149 38,2 72,-18 68,-50 -4,-29 -53,-69 -144,-95 50,4 198,15 212,16 21,18 99,78 104,81 5,3 11,31 13,44 -3,1 -7,3 -10,6 -18,15 -22,42 -8,61 14,19 41,23 60,11 20,-14 26,-45 10,-66 -10,-13 -27,-18 -42,-15 -3,-15 -6,-36 -6,-36l43 -5c1,6 4,12 8,16 13,14 37,15 48,0 11,-13 6,-35 -7,-45 -14,-11 -36,-9 -46,6 -2,3 -3,7 -4,11 -10,3 -34,8 -40,7 -8,-1 -87,-70 -92,-73 14,0 68,4 121,8 54,3 107,8 120,11 27,55 65,97 98,126 34,28 65,43 76,40 12,-2 24,-16 29,-35 5,-19 4,-41 -11,-61 -24,-34 -84,-62 -147,-77 17,1 45,3 78,4 33,0 70,2 105,2 2,1 4,1 6,1 6,0 26,0 55,1 19,1 36,2 49,4 9,2 37,32 48,43 -8,10 -12,24 -8,37 6,20 27,31 46,28 20,-4 35,-23 34,-41 -1,-26 -30,-46 -54,-37 -4,1 -7,3 -10,5 -8,-6 -15,-15 -20,-22 -6,-8 -9,-14 -9,-14 35,2 134,-3 163,-6 18,16 45,50 74,79 28,30 59,55 83,52 38,-4 70,-28 61,-59 -8,-28 -63,-61 -156,-75 50,-2 198,-11 212,-13 12,7 39,23 64,37 25,14 48,26 52,28 4,2 14,28 19,41 -3,2 -7,4 -9,7 -16,18 -15,46 2,62 16,17 43,17 60,2 18,-18 19,-49 0,-67 -12,-11 -29,-14 -44,-9 -5,-13 -11,-34 -11,-34l41 -11c3,6 6,11 11,14 15,11 39,9 48,-7 8,-15 0,-35 -15,-44 -15,-8 -37,-3 -44,13 -2,4 -2,8 -2,12 -10,4 -33,13 -39,13 -8,0 -97,-56 -102,-59 14,-1 68,-6 121,-10 54,-5 107,-9 120,-8 71,100 174,147 195,139 21,-8 38,-62 4,-98 -28,-30 -91,-50 -155,-54 33,-3 113,-13 181,-20l0 0c2,0 4,0 6,0 7,-1 27,-3 55,-6 19,-1 36,-1 49,0 10,1 40,28 51,39 -6,10 -9,24 -4,37 7,19 28,29 47,24 19,-5 32,-24 30,-43 -3,-25 -33,-43 -56,-33 -3,2 -6,4 -9,6 -17,-11 -32,-33 -32,-33 18,-1 51,-5 84,-8 32,-3 64,-7 78,-8 19,14 47,47 75,76 15,14 29,27 42,37 14,10 27,16 38,15 36,-4 66,-26 59,-59 -2,-7 -6,-14 -13,-22 -4,-3 -8,-7 -13,-11 -5,-3 -11,-7 -17,-10 -26,-14 -63,-27 -109,-32 12,-1 31,-3 52,-4 21,-1 44,-2 67,-3 45,-1 86,-2 93,-2 11,8 37,25 60,41 24,16 45,31 48,33 5,2 12,30 15,42 -4,2 -7,4 -10,7 -16,16 -18,44 -4,62 14,18 39,20 56,7 20,-15 24,-45 8,-65 -10,-13 -26,-18 -41,-14 -4,-14 -8,-35 -8,-35 0,0 11,-2 21,-4 11,-2 21,-3 21,-3 2,6 5,11 9,16 13,12 36,13 47,-2 10,-14 5,-35 -9,-45 -14,-11 -36,-8 -45,7 -2,4 -3,8 -3,11 -10,3 -33,10 -39,10 -4,-1 -27,-17 -49,-34 -22,-16 -44,-32 -47,-34 7,0 24,0 46,-1 22,1 49,1 76,2 27,0 54,2 75,3 22,1 38,3 44,5 57,108 147,171 168,167 22,-4 48,-55 22,-96 -12,-17 -32,-33 -57,-47 -25,-13 -56,-24 -87,-31 16,0 45,2 78,3 32,2 70,4 104,7l0 -9 0 9c2,0 4,0 6,0 6,1 26,2 55,5 18,2 35,5 48,8 9,3 34,35 43,48 -8,9 -13,22 -11,35 4,21 23,34 42,33 20,-2 36,-19 37,-37 2,-25 -24,-49 -49,-43 -3,1 -6,3 -9,4 -16,-13 -26,-38 -26,-38 35,4 134,11 162,13 33,35 87,149 136,152 38,2 72,-17 68,-50 -3,-29 -52,-70 -142,-97 50,5 197,19 212,19 10,9 34,29 57,47 23,18 44,34 47,36 4,2 10,30 12,43 -3,2 -7,4 -10,6 -18,15 -22,43 -8,62 14,19 41,23 60,10 21,-14 27,-45 11,-65 -11,-13 -27,-18 -43,-16 -3,-14 -6,-35 -6,-35 0,0 11,-1 22,-2 10,-2 21,-3 21,-3 2,6 5,12 9,16 12,13 37,15 49,0 10,-13 5,-35 -8,-45 -14,-11 -37,-9 -46,6 -3,3 -4,7 -4,11 -11,2 -35,8 -41,7 -4,-1 -26,-19 -47,-36 -21,-18 -42,-37 -45,-38 14,0 68,4 122,8 27,2 54,4 75,6 22,2 38,4 45,5 28,55 66,97 101,125 35,28 66,41 77,38 23,-5 46,-58 16,-97 -13,-16 -34,-31 -60,-44 -27,-12 -57,-23 -89,-29 17,0 45,1 78,2 17,0 34,0 52,0 18,0 35,0 53,0l0 0c2,0 4,0 6,0 6,0 26,0 55,0 19,1 35,2 48,4 10,1 39,31 50,42 -8,10 -11,24 -7,37 6,19 27,30 47,26 20,-4 34,-23 33,-41 -2,-26 -32,-45 -56,-36 -3,1 -6,3 -9,5 -17,-11 -30,-35 -30,-35 18,1 51,-1 84,-3 16,-1 32,-3 46,-4 14,-1 25,-2 33,-3 9,7 21,20 34,33 13,14 28,29 43,43 15,14 30,27 45,36 15,9 29,14 41,12 40,-6 70,-32 59,-63 -5,-13 -22,-28 -49,-40 -14,-6 -30,-11 -48,-16 -19,-4 -40,-8 -64,-11 13,-1 31,-3 52,-5 22,-2 45,-5 68,-7 22,-2 43,-6 60,-8 17,-2 28,-4 32,-4 6,3 16,8 28,14 12,5 26,11 39,17 27,12 51,22 54,23 6,2 18,27 24,39 -3,3 -6,6 -9,9 -14,19 -11,46 8,61 19,15 47,12 63,-6 17,-19 14,-50 -7,-65 -14,-10 -31,-11 -46,-4 -7,-13 -15,-33 -15,-33l41 -16c3,5 7,10 13,13 16,10 40,5 47,-13 6,-16 -4,-35 -20,-41 -16,-7 -37,1 -43,18 -1,3 -1,7 -1,11 -9,5 -31,17 -38,18 -4,0 -30,-11 -55,-24 -25,-12 -50,-24 -52,-25 6,-2 23,-5 45,-9 11,-2 23,-4 36,-6 12,-2 25,-5 39,-7 13,-3 26,-5 39,-8 6,-1 12,-2 18,-3 6,-1 12,-3 17,-4 21,-4 37,-7 44,-7 10,11 21,21 33,31 5,4 11,9 17,13 5,5 10,9 14,13 10,9 19,16 28,23 4,4 8,7 12,10 4,4 9,7 12,10 8,6 15,11 22,15 7,4 13,8 18,11 11,5 19,7 24,6 9,-3 18,-18 22,-37 4,-18 2,-41 -12,-61 -12,-16 -32,-30 -59,-40z"/>
   <path class="fil0" d="M10160 240c-1,-19 -2,-38 -18,-50 -16,-12 -46,-18 -107,-10 -17,2 -42,9 -68,16 -27,6 -53,14 -74,17 0,0 -2,0 -7,0 -5,0 -12,0 -21,1 -18,0 -43,1 -71,3 -28,2 -58,4 -89,6 -30,1 -60,3 -86,3 0,-10 49,-42 49,-42 8,-3 22,-6 35,-9 14,-3 26,-5 33,-6 2,5 5,10 10,15 13,14 26,18 39,16 6,-1 12,-4 17,-8 5,-4 9,-8 13,-14 7,-11 8,-28 2,-42 -6,-14 -21,-24 -44,-22 -23,1 -39,20 -39,41 -25,7 -51,15 -58,16 -1,-8 1,-29 2,-39 27,11 48,-16 42,-39 -6,-26 -29,-35 -47,-24 -17,10 -29,40 -4,58 0,24 0,40 -4,43 -4,4 -71,56 -94,57 -20,2 -113,12 -176,13 60,-13 129,-49 151,-83 24,-39 -29,-74 -63,-68 -35,6 -100,91 -129,150 -6,1 -17,2 -31,2l1 11 -1 -11c-38,2 -101,3 -156,3 -27,-1 -52,-2 -72,-3 -19,-1 -33,-2 -36,-3 1,-5 23,-20 44,-35 21,-14 42,-27 43,-27 15,1 37,4 48,5 1,15 14,27 28,28 17,1 32,-13 33,-31 0,-19 -15,-33 -32,-33 -14,1 -25,11 -28,24 -11,0 -20,-1 -28,-1 -7,-1 -12,-1 -12,-1 0,0 3,-21 4,-29 11,4 23,3 33,-5 18,-14 19,-41 8,-59 -13,-20 -39,-27 -56,-11 -17,15 -17,43 -4,61 2,4 6,6 9,9 2,9 2,23 -6,30 -7,5 -34,23 -62,41 -14,8 -28,16 -39,23 -12,6 -21,10 -24,11 0,0 -6,0 -16,-1 -9,-1 -22,-2 -37,-3 -7,-1 -15,-2 -23,-3 -8,-1 -16,-1 -24,-2 -16,-2 -31,-4 -45,-5 6,0 12,-1 18,-1 6,-1 12,-2 18,-3 11,-2 23,-5 34,-9 21,-9 40,-22 50,-39 12,-21 15,-46 9,-63 -7,-17 -23,-26 -52,-15 -15,6 -28,15 -41,27 -3,2 -6,5 -9,8 -4,4 -8,7 -11,10 -7,6 -14,13 -20,19 -12,14 -23,27 -32,39 -9,11 -17,20 -24,24 -8,1 -17,1 -26,2 0,0 -4,0 -11,0 -7,1 -17,1 -26,2 -19,1 -37,3 -37,3 -5,0 -9,0 -14,0 -1,-4 8,-14 20,-25 11,-11 24,-22 30,-27 7,4 15,6 23,5 9,-1 16,-4 23,-9 17,-13 19,-38 2,-51 -7,-6 -17,-9 -27,-9 -10,1 -20,5 -27,11 -12,12 -14,31 -3,44 -9,10 -24,24 -39,37 -15,12 -30,24 -42,26 -6,1 -22,4 -44,7 -22,3 -49,7 -78,11 -8,0 -15,1 -22,2l-11 1c-4,0 -7,0 -11,1 -14,0 -29,1 -42,2 -27,2 -50,2 -65,3 44,-11 85,-26 118,-45 8,-5 15,-10 22,-15 7,-6 14,-12 19,-17 12,-12 20,-25 26,-38 8,-20 1,-37 -15,-46 -8,-5 -18,-9 -28,-10 -5,-1 -11,-1 -17,0 -5,0 -10,1 -16,2 -3,1 -8,2 -12,3 -5,1 -9,3 -13,4 -7,2 -15,5 -22,8 -13,6 -25,13 -36,20 -21,15 -36,33 -48,51 -25,35 -39,71 -68,85l-12 1c-6,0 -16,0 -28,0 -1,0 -2,0 -3,0l0 0c-39,0 -102,-1 -157,-3 -55,-1 -102,-4 -109,-5 3,-11 86,-62 89,-62 15,1 38,4 48,5 2,16 14,28 29,29 16,1 32,-12 33,-30 1,-18 -14,-34 -31,-34 -14,1 -26,10 -29,24 -21,-2 -41,-3 -41,-3 0,0 3,-21 4,-30 12,4 25,4 35,-4 19,-13 21,-41 10,-59 -13,-20 -41,-27 -60,-12 -17,15 -18,44 -4,61 3,4 6,7 10,9 1,9 2,24 -8,30 -13,10 -111,73 -126,76 0,0 -94,-4 -146,-6 45,-4 98,-23 118,-59 22,-42 11,-101 -50,-75 -59,25 -98,116 -127,132 -8,1 -16,1 -25,1 0,0 -18,-1 -36,-1 -19,-1 -37,-2 -37,-2 -5,0 -9,-1 -14,-1 0,-8 42,-38 55,-46 12,10 30,9 43,0 16,-12 18,-37 4,-52 -12,-12 -34,-13 -47,-1 -13,10 -17,29 -8,43 -19,17 -63,50 -87,52 -5,0 -21,0 -43,0 -23,0 -51,0 -81,0 -29,0 -60,1 -87,1 -27,1 -51,2 -66,2 88,-22 172,-54 203,-103 11,-19 6,-36 -10,-48 -7,-6 -18,-11 -30,-13 -6,-2 -12,-3 -19,-3 -7,0 -14,0 -21,1 -21,3 -39,8 -54,13 -16,6 -29,13 -41,20 -23,15 -39,32 -52,50 -25,36 -38,72 -67,88l-12 1c-6,0 -16,1 -28,2 -1,0 -2,0 -3,0l0 10 0 -10c-39,2 -102,5 -157,6 -54,1 -101,-1 -108,-2 1,-3 6,-8 14,-14 8,-7 19,-15 29,-22 10,-7 21,-15 28,-20 8,-5 14,-9 14,-9 15,1 38,3 48,4 2,15 15,27 30,27 17,0 31,-14 31,-32 0,-18 -16,-33 -33,-32 -13,1 -24,12 -27,25 -21,-1 -40,-1 -40,-1 0,0 2,-21 3,-29 11,3 23,2 33,-6 18,-14 18,-42 6,-60 -13,-19 -40,-25 -57,-9 -15,16 -15,44 -2,61 3,4 7,7 10,9 2,9 3,23 -6,30 -6,5 -32,25 -59,43 -14,9 -27,17 -39,24 -11,6 -20,11 -24,11 0,0 -5,0 -15,-1 -9,0 -22,-1 -37,-3 -15,-1 -32,-2 -47,-4 -16,-1 -32,-3 -45,-4 45,-2 99,-19 119,-53 12,-21 15,-47 8,-64 -3,-8 -8,-15 -17,-18 -9,-2 -21,-2 -36,4 -29,12 -54,39 -76,66 -22,26 -41,52 -56,59 -8,-1 -16,-1 -25,-1l-72 -10c-5,-1 -9,-2 -14,-3 1,-8 45,-33 58,-40 12,10 30,12 42,3 17,-10 22,-35 9,-51 -11,-13 -31,-16 -46,-5 -13,9 -18,27 -12,43 -19,14 -66,43 -90,42 -10,-1 -64,-7 -123,-15 -59,-7 -122,-14 -152,-16 90,-11 177,-32 213,-77 14,-17 11,-35 -3,-49 -14,-14 -38,-23 -67,-23 -41,1 -74,9 -98,20 -26,12 -44,28 -59,44 -15,16 -27,33 -39,47 -6,7 -12,14 -18,19 -6,6 -13,10 -21,14l-12 -1c-6,0 -16,0 -29,0 -1,0 -2,0 -3,0l0 22c2,0 4,0 6,0 6,1 26,1 55,2 19,3 35,5 48,8 9,3 34,35 43,48 -9,9 -13,22 -11,36 2,10 7,18 14,24 7,6 16,9 26,8 19,-1 35,-17 37,-36 3,-25 -23,-49 -47,-43 -4,0 -7,2 -10,3 -14,-13 -25,-38 -25,-38 9,1 22,2 36,4 15,1 31,3 47,5 33,3 65,6 79,8 31,36 80,152 128,157 19,2 38,-1 51,-9 13,-9 22,-21 20,-38 -1,-14 -13,-32 -36,-50 -23,-19 -57,-37 -102,-53 25,3 74,10 119,17 22,3 43,5 60,8 17,2 29,3 32,4 5,4 14,12 24,20 9,9 21,19 32,28 11,9 22,18 30,25 9,6 15,11 16,12 5,3 10,31 12,44 -4,1 -7,3 -11,6 -18,14 -23,41 -9,61 7,10 18,16 29,18 11,2 22,0 33,-6 23,-14 28,-45 12,-66 -6,-6 -13,-11 -20,-14 -8,-2 -16,-3 -24,-2 -3,-14 -5,-36 -5,-36l44 -4c1,6 4,12 8,17 7,6 17,10 26,10 10,0 20,-3 25,-11 11,-13 5,-35 -9,-45 -7,-5 -16,-7 -25,-6 -9,1 -17,5 -22,12 -2,3 -3,7 -4,11 -11,2 -35,7 -41,6 -4,-1 -26,-18 -47,-37 -21,-18 -41,-37 -43,-39 7,1 24,2 46,4 21,3 48,5 75,7 54,6 108,8 120,10 30,54 73,94 109,120 37,25 68,37 79,33 22,-7 42,-60 10,-98 -26,-31 -89,-54 -153,-64 17,0 46,-1 79,-3 33,-1 70,-3 104,-5l0 0c2,0 4,0 6,0 6,-1 26,-2 55,-3 19,0 36,1 49,3 9,1 38,30 48,42 -7,10 -10,23 -6,36 6,20 25,31 44,28 19,-4 33,-22 32,-41 0,-25 -29,-46 -52,-37 -3,1 -6,3 -9,5 -17,-11 -30,-35 -30,-35 9,0 22,0 36,-1 15,0 31,-1 48,-1 32,-1 64,-2 78,-2 18,16 43,51 69,83 25,31 52,59 76,58 37,0 69,-20 64,-53 -2,-14 -16,-31 -41,-47 -12,-8 -27,-16 -45,-23 -17,-7 -38,-13 -61,-18 25,0 75,2 120,3 45,2 85,4 93,4 21,17 100,76 105,79 5,3 11,31 14,43 -3,2 -7,4 -10,7 -17,15 -21,43 -6,61 14,19 40,23 59,10 20,-15 25,-46 9,-66 -10,-13 -27,-18 -42,-15 -4,-14 -7,-35 -7,-35l43 -6c1,6 4,12 8,16 13,13 38,14 49,-1 10,-14 5,-35 -9,-45 -14,-11 -36,-8 -45,7 -3,3 -4,7 -4,11 -11,2 -34,9 -40,8 -8,-2 -89,-68 -94,-71 28,0 217,8 242,14 28,54 67,96 101,124 35,27 66,41 77,38 23,-6 45,-58 16,-97 -25,-33 -86,-60 -149,-73 34,1 114,2 183,2l0 0c2,0 4,0 6,0 3,0 10,0 19,0 9,0 22,0 36,0 19,1 35,2 48,4 10,1 39,31 50,42 -8,10 -11,24 -7,37 6,19 27,31 47,26 21,-4 35,-23 33,-41 -2,-26 -32,-45 -56,-36 -3,2 -6,3 -9,6 -17,-12 -30,-36 -30,-36 9,0 22,0 36,0 15,-1 31,-2 48,-3 33,-2 65,-6 79,-8 19,14 49,45 80,72 30,27 61,51 82,47 17,-2 32,-10 42,-20 9,-10 15,-24 11,-40 -4,-14 -18,-29 -44,-42 -25,-13 -63,-22 -110,-26 25,-3 74,-10 119,-13 44,-4 85,-4 92,-3 11,8 35,27 54,46 22,19 43,36 46,37 5,3 10,32 12,44 -4,2 -8,4 -11,6 -19,14 -25,41 -10,62 14,19 42,24 63,12 22,-14 28,-45 11,-65 -10,-13 -27,-19 -43,-17 -3,-15 -5,-36 -5,-36l44 -3c1,6 4,12 8,16 13,13 39,15 50,0 11,-13 6,-34 -7,-45 -15,-11 -37,-9 -47,5 -2,4 -4,7 -4,11 -11,3 -36,8 -42,6 -4,-1 -26,-19 -46,-38 -6,-5 -11,-9 -16,-14 -4,-4 -9,-8 -12,-12 -4,-3 -7,-6 -10,-9 -3,-2 -4,-3 -5,-4 4,0 10,1 17,1 8,1 18,2 29,3 11,2 23,3 36,5 12,1 26,2 39,4 54,5 107,9 120,11 28,55 69,96 105,123 37,27 68,39 79,36 24,-6 44,-60 13,-98 -27,-32 -88,-56 -152,-68 17,0 46,0 79,-1 33,0 70,-2 104,-3l0 0c41,-1 78,-3 98,-2 22,7 72,40 91,53 -11,17 -15,45 5,67 28,32 70,19 78,-9 9,-28 -4,-89 -66,-71 -3,1 -6,3 -9,6 -13,-10 -55,-41 -64,-46 23,-1 117,-7 213,-13 48,-4 97,-6 137,-10 40,-2 72,-2 87,-2 1,0 1,0 1,0 22,8 51,19 81,29 31,10 64,19 97,24 66,10 90,2 87,-49z"/>
  </g>
 </g>
</svg>
