<?xml version="1.0" encoding="utf-8"?>
<!-- Generator: Adobe Illustrator 16.0.0, SVG Export Plug-In . SVG Version: 6.00 Build 0)  -->
<!DOCTYPE svg PUBLIC "-//W3C//DTD SVG 1.1//EN" "http://www.w3.org/Graphics/SVG/1.1/DTD/svg11.dtd">
<svg version="1.1" id="Layer_1" xmlns="http://www.w3.org/2000/svg" xmlns:xlink="http://www.w3.org/1999/xlink" x="0px" y="0px"
	 width="160px" height="95px" viewBox="0 0 160 95" enable-background="new 0 0 160 95" xml:space="preserve">
<g>
	<path fill="#FFFFFF" d="M69.418,46.107c0.383-0.886,1.277-2.414,2.686-4.586c1.407-2.172,3.007-4.445,4.797-6.818
		s3.52-4.395,5.189-6.063c1.67-1.67,3.327-3.138,4.977-4.405c1.649-1.267,3.218-2.322,4.706-3.167s2.937-1.649,4.345-2.414v-1.146
		c-0.121-1.287-0.632-1.961-1.537-2.021c-0.905-0.06-1.951,0.201-3.138,0.785c-1.187,0.583-2.394,1.236-3.62,1.961
		c-1.228,0.724-2.747,1.749-4.557,3.077c-1.811,1.327-4.022,3.047-6.637,5.158c-2.615,2.112-4.757,3.862-6.427,5.25
		c-1.669,1.388-3.65,2.916-5.942,4.585c-2.293,1.67-4.938,3.621-7.935,5.854s-3.942,2.393-2.836,0.482
		c1.106-1.911,2.152-3.701,3.138-5.37s1.961-3.369,2.926-5.099c0.966-1.729,2.082-3.681,3.349-5.853
		c1.268-2.172,2.796-4.374,4.586-6.607c1.79-2.232,3.55-4.444,5.279-6.637c1.73-2.192,3.037-3.771,3.922-4.736
		c0.886-0.966,1.308-1.851,1.268-2.655c-0.04-0.804-0.322-1.528-0.845-2.172c-0.523-0.644-1.348-1.247-2.474-1.81l-1.448,1.327
		c-2.655,2.614-5.32,4.978-7.995,7.09c-2.675,2.111-6.023,4.837-10.046,8.175c-4.022,3.339-7.733,6.829-11.132,10.469
		c-3.399,3.641-7.02,6.989-10.861,10.047c-3.841,3.057-7.502,5.41-10.981,7.059c-3.479,1.649-6.415,2.806-8.809,3.47
		c-2.394,0.663-4.153,0.885-5.28,0.663c-1.126-0.221-1.8-0.864-2.021-1.931c-0.222-1.065,0.181-2.231,1.206-3.499
		c1.026-1.267,1.539-2.253,1.539-2.956c0-0.704-0.353-1.087-1.056-1.146c-0.704-0.061-1.64,0.181-2.806,0.724
		c-1.167,0.543-2.192,1.378-3.077,2.504C0.985,44.819,0.362,46.509,0,48.762c0.081,1.77,0.483,3.218,1.207,4.343
		c0.724,1.126,2.132,2.092,4.224,2.896l2.413,0.06c2.816-0.885,5.682-1.898,8.599-3.045c2.916-1.146,6.245-2.746,9.985-4.797
		c3.741-2.052,7.713-4.968,11.917-8.749c4.203-3.781,7.521-6.919,9.955-9.412c2.434-2.494,5.27-5.27,8.508-8.327
		c3.238-3.057,5.31-4.877,6.215-5.46c0.905-0.584,1.046-0.313,0.423,0.814c-0.624,1.126-1.317,2.242-2.082,3.349
		s-1.881,2.785-3.349,5.038c-1.469,2.253-2.946,4.435-4.435,6.547c-1.488,2.111-2.927,4.384-4.314,6.817s-2.726,4.345-4.013,5.732
		s-2.282,2.595-2.986,3.62s-1.025,2.092-0.966,3.198c0.061,1.105,0.483,1.938,1.268,2.502s1.88,0.555,3.288-0.028
		c1.408-0.584,3.198-1.801,5.37-3.65c2.172-1.851,4.374-3.479,6.607-4.888c2.232-1.407,4.173-2.715,5.822-3.922
		c1.649-1.206,3.439-2.453,5.37-3.74s1.779-0.744-0.453,1.629s-4.022,4.324-5.37,5.853c-1.347,1.528-2.403,3.318-3.167,5.37
		c-0.765,2.05-0.896,3.438-0.393,4.161c0.503,0.725,1.458,1.247,2.866,1.569c3.499-0.201,6.255-0.472,8.266-0.813
		c2.012-0.342,4.053-0.824,6.125-1.448c2.071-0.623,3.811-1.157,5.219-1.601c1.407-0.44,2.292-1.245,2.654-2.411
		c-0.604-1.932-1.407-2.625-2.413-2.082s-2.071,1.025-3.197,1.448c-1.127,0.422-2.434,0.805-3.922,1.146s-3.077,0.583-4.767,0.724
		s-2.384-0.452-2.082-1.78C68.694,48.098,69.036,46.992,69.418,46.107z"/>
	<path fill="#FFFFFF" d="M158.17,77.523c-1.222-0.848-2.184-0.863-2.882-0.049c-0.701,0.813-0.725,1.979-0.075,3.493
		c0.652,1.514,0.173,3.035-1.439,4.566c-1.611,1.53-3.477,2.571-5.594,3.126c-2.115,0.554-4.161,0.789-6.129,0.708
		c-1.971-0.081-3.648-0.708-5.031-1.88c-1.385-1.173-2.672-2.802-3.858-4.885c-1.189-2.084-1.931-4.322-2.224-6.716
		s-0.244-4.78,0.146-7.156l2.369-9.107c0.766-2.165,1.578-4.128,2.442-5.886c0.863-1.759,2.49-3.118,4.884-4.079
		c2.394-0.959,4.43-1.969,6.105-3.028c1.677-1.058,3.013-2.164,4.006-3.321c0.992-1.155,1.791-2.083,2.393-2.784
		c0.603-0.699,0.953-1.651,1.051-2.857c0.098-1.204-0.04-2.336-0.415-3.395c-0.375-1.058-1.457-1.912-3.248-2.564
		c-2.019,0.131-3.558,0.367-4.616,0.709s-2.418,0.944-4.078,1.807c-1.661,0.863-3.322,1.849-4.982,2.955
		c-1.661,1.107-3.053,2.166-4.177,3.175c-1.123,1.011-2.164,1.873-3.126,2.589c-0.961,0.717-1.352,0.749-1.172,0.098
		c0.18-0.65,0.455-1.212,0.83-1.685s1.115-1.368,2.223-2.687c1.107-1.319,1.596-2.369,1.466-3.15
		c-0.131-0.782-0.473-1.352-1.026-1.71c-0.553-0.357-1.196-0.423-1.929-0.195c-0.733,0.229-1.328,0.732-1.783,1.515
		c-0.455,0.781-1.147,1.815-2.076,3.102c-0.928,1.286-2.271,3.069-4.029,5.348c-1.759,2.28-3.688,4.381-5.788,6.301
		c-2.101,1.921-3.965,3.64-5.593,5.153c-1.628,1.515-3.281,2.931-4.958,4.25c-1.676,1.318-3.044,2.629-4.103,3.932
		s-0.879,1.709,0.537,1.221c1.417-0.488,2.891-1.285,4.421-2.393c1.529-1.108,2.702-1.905,3.517-2.394s0.708,0.122-0.317,1.831
		c-1.026,1.71-1.979,3.167-2.857,4.372c-0.88,1.205-1.848,2.198-2.906,2.979c-1.06,0.781-1.954,1.254-2.687,1.416
		c-0.732,0.163-1.67,0.537-2.809,1.124l-0.049,2.638c0.717,1.107,1.596,1.668,2.638,1.685c1.041,0.016,1.962-0.229,2.76-0.732
		c0.797-0.504,1.847-1.344,3.15-2.516c1.303-1.172,2.467-2.385,3.492-3.639s2.369-3.013,4.029-5.275
		c1.661-2.263,3.289-4.355,4.885-6.276s3.175-3.892,4.738-5.91c1.563-2.019,2.938-3.541,4.127-4.566
		c1.188-1.026,2.744-2.223,4.665-3.591c1.92-1.367,3.81-2.572,5.666-3.614c1.855-1.041,3.492-1.889,4.908-2.54
		c1.417-0.65,2.385-0.928,2.906-0.83s1.002,0.464,1.441,1.099c0.439,0.636,0.064,1.621-1.124,2.955
		c-1.188,1.336-2.516,2.5-3.98,3.492c-1.466,0.994-2.735,1.653-3.81,1.979c-1.075,0.326-2.125,0.766-3.15,1.319
		c-1.026,0.554-2.336,1.229-3.933,2.026c-1.596,0.799-1.962,1.841-1.099,3.126c0.863,1.286,0.504,3.403-1.075,6.35
		c-1.578,2.946-1.685,3.362-1.685,3.362c-0.961,4.185-1.408,4.858-1.586,7.969c-0.182,3.108-0.066,5.926,0.342,8.45
		c0.405,2.522,1.04,4.436,1.905,5.739c0.861,1.301,1.83,2.571,2.904,3.81c1.074,1.236,2.247,2.303,3.517,3.199
		c1.271,0.895,2.833,1.619,4.689,2.174l4.151,0.049c3.259-0.685,5.684-1.344,7.278-1.979c1.598-0.635,3.037-1.458,4.324-2.467
		c1.284-1.01,2.727-3.045,4.321-6.105C160,80.112,159.391,78.37,158.17,77.523z"/>
	<path fill="#FFFFFF" d="M106.19,50.599c1.781-0.537,3.267-1.141,4.453-1.81c1.189-0.671,2.281-1.715,3.275-3.133
		c-0.345-0.728-0.793-1.015-1.35-0.861c-0.555,0.153-1.322,0.459-2.299,0.919s-2.25,0.891-3.821,1.293
		c-1.569,0.402-3.592,0.537-6.063,0.402c-2.471-0.134-4.06-0.44-4.77-0.919c-0.707-0.479-0.994-0.92-0.862-1.322
		c0.136-0.402,1.083-0.852,2.845-1.351c1.764-0.497,3.345-1.312,4.741-2.441c1.398-1.13,2.166-2.472,2.298-4.022
		c0.136-1.552-0.238-2.634-1.12-3.247c-0.879-0.613-1.914-0.938-3.104-0.977l-1.321,0.057c-1.187,0.307-2.345,0.882-3.477,1.725
		c-1.129,0.843-2.259,1.839-3.391,2.988c-1.129,1.148-1.942,2.26-2.442,3.332c-0.497,1.073-0.747,2.605-0.747,4.598
		c0.23,1.303,0.615,2.279,1.149,2.931c0.537,0.651,1.293,1.216,2.27,1.695c0.978,0.479,2.865,0.853,5.661,1.121h1.551
		C102.237,51.461,104.409,51.135,106.19,50.599z M95.388,39.882c0.442-0.633,1.255-1.255,2.441-1.868
		c1.189-0.612,1.839-0.632,1.954-0.058c0.115,0.575-0.219,1.207-1.006,1.896c-0.784,0.689-2.345,1.418-4.683,2.184
		C94.517,41.231,94.947,40.514,95.388,39.882z"/>
</g>
</svg>
